ISO-10303-21;
HEADER;
FILE_DESCRIPTION (( 'STEP AP214' ),
    '1' );
FILE_NAME ('InstallUtilBolck.STEP',
    '2026-08-23T23:45:23',
    ( '' ),
    ( '' ),
    'SwSTEP 2.0',
    'SolidWorks 2025',
    '' );
FILE_SCHEMA (( 'AUTOMOTIVE_DESIGN' ));
ENDSEC;

DATA;
#1 = PRESENTATION_LAYER_ASSIGNMENT (  '', '', ( #847 ) ) ;
#2 = VERTEX_POINT ( 'NONE', #34 ) ;
#3 = CARTESIAN_POINT ( 'NONE',  ( -1.450000000000007505, 9.000000000000001776, 0.7500000000490065766 ) ) ;
#4 = ORIENTED_EDGE ( 'NONE', *, *, #643, .F. ) ;
#5 = SURFACE_STYLE_FILL_AREA ( #792 ) ;
#6 = EDGE_CURVE ( 'NONE', #1140, #50, #437, .T. ) ;
#7 = VECTOR ( 'NONE', #927, 1000.000000000000000 ) ;
#8 = EDGE_CURVE ( 'NONE', #943, #322, #453, .T. ) ;
#9 = VERTEX_POINT ( 'NONE', #734 ) ;
#10 = CARTESIAN_POINT ( 'NONE',  ( 5.999999999999999112, 0.000000000000000000, -3.999999999999999112 ) ) ;
#11 = ORIENTED_EDGE ( 'NONE', *, *, #922, .F. ) ;
#12 = CARTESIAN_POINT ( 'NONE',  ( 0.9999999999999915623, 6.000000000000000000, -0.6499999999510071014 ) ) ;
#13 = DIRECTION ( 'NONE',  ( 2.775557561562793668E-17, 1.000000000000000000, -1.222980050563648509E-16 ) ) ;
#14 = EDGE_CURVE ( 'NONE', #943, #60, #29, .T. ) ;
#15 = DIRECTION ( 'NONE',  ( 0.000000000000000000, 0.000000000000000000, 1.000000000000000000 ) ) ;
#16 = ORIENTED_EDGE ( 'NONE', *, *, #483, .F. ) ;
#17 = CARTESIAN_POINT ( 'NONE',  ( -2.999999999999997780, 5.000000000000000000, 1.000000000000000000 ) ) ;
#18 = ORIENTED_EDGE ( 'NONE', *, *, #342, .T. ) ;
#19 = DIRECTION ( 'NONE',  ( -0.000000000000000000, 1.000000000000000000, -0.000000000000000000 ) ) ;
#20 = ADVANCED_FACE ( 'NONE', ( #728 ), #892, .F. ) ;
#21 = EDGE_CURVE ( 'NONE', #182, #1071, #623, .T. ) ;
#22 = ORIENTED_EDGE ( 'NONE', *, *, #370, .T. ) ;
#23 = CARTESIAN_POINT ( 'NONE',  ( -6.000000000000000888, 9.000000000000000000, -1.999999999999995781 ) ) ;
#24 = VECTOR ( 'NONE', #1048, 1000.000000000000000 ) ;
#25 = ORIENTED_EDGE ( 'NONE', *, *, #390, .T. ) ;
#26 = CARTESIAN_POINT ( 'NONE',  ( 2.535898384862242061, 0.000000000000000000, -3.999999999999999112 ) ) ;
#27 = AXIS2_PLACEMENT_3D ( 'NONE', #362, #727, #118 ) ;
#28 = CYLINDRICAL_SURFACE ( 'NONE', #27, 0.6499999999999941380 ) ;
#29 = LINE ( 'NONE', #363, #418 ) ;
#30 = PLANE ( 'NONE',  #864 ) ;
#31 = VERTEX_POINT ( 'NONE', #445 ) ;
#32 = CARTESIAN_POINT ( 'NONE',  ( -2.535898384862246946, 9.000000000000000000, -3.999999999999999112 ) ) ;
#33 = DIRECTION ( 'NONE',  ( 0.000000000000000000, 0.000000000000000000, 1.000000000000000000 ) ) ;
#34 = CARTESIAN_POINT ( 'NONE',  ( -1.450000000000007505, 6.000000000000000000, 0.1000000000490073870 ) ) ;
#35 = DIRECTION ( 'NONE',  ( 0.000000000000000000, 0.000000000000000000, -1.000000000000000000 ) ) ;
#36 = EDGE_CURVE ( 'NONE', #1030, #89, #662, .T. ) ;
#37 = ORIENTED_EDGE ( 'NONE', *, *, #21, .F. ) ;
#38 = CARTESIAN_POINT ( 'NONE',  ( -1.450000000000007505, 6.000000000000000000, 1.400000000049005600 ) ) ;
#39 = DIRECTION ( 'NONE',  ( 2.775557561562793668E-17, 1.000000000000000000, -1.222980050563648509E-16 ) ) ;
#40 = DIRECTION ( 'NONE',  ( 0.000000000000000000, 0.000000000000000000, 1.000000000000000000 ) ) ;
#41 = CARTESIAN_POINT ( 'NONE',  ( -5.000000000000000000, 9.000000000000000000, 1.000000000000000000 ) ) ;
#42 = ORIENTED_EDGE ( 'NONE', *, *, #615, .T. ) ;
#43 = FACE_OUTER_BOUND ( 'NONE', #993, .T. ) ;
#44 = EDGE_CURVE ( 'NONE', #170, #31, #336, .T. ) ;
#45 = EDGE_CURVE ( 'NONE', #322, #976, #1116, .T. ) ;
#46 = AXIS2_PLACEMENT_3D ( 'NONE', #977, #1072, #270 ) ;
#47 = PLANE ( 'NONE',  #891 ) ;
#48 = LINE ( 'NONE', #1100, #67 ) ;
#49 = CARTESIAN_POINT ( 'NONE',  ( 3.000000000000000000, 9.000000000000000000, 1.000000000000000000 ) ) ;
#50 = VERTEX_POINT ( 'NONE', #396 ) ;
#51 = DIRECTION ( 'NONE',  ( 0.000000000000000000, -0.000000000000000000, -1.000000000000000000 ) ) ;
#52 = DIRECTION ( 'NONE',  ( -1.000000000000000000, -4.336808689942012806E-16, 0.000000000000000000 ) ) ;
#53 = CARTESIAN_POINT ( 'NONE',  ( 0.000000000000000000, 0.000000000000000000, 0.000000000000000000 ) ) ;
#54 = EDGE_CURVE ( 'NONE', #530, #1015, #48, .T. ) ;
#55 = ORIENTED_EDGE ( 'NONE', *, *, #159, .T. ) ;
#56 = DIRECTION ( 'NONE',  ( 0.000000000000000000, -1.000000000000000000, 0.000000000000000000 ) ) ;
#57 = VECTOR ( 'NONE', #337, 1000.000000000000000 ) ;
#58 = DIRECTION ( 'NONE',  ( 0.8660254037844382635, -0.000000000000000000, -0.5000000000000007772 ) ) ;
#59 = EDGE_CURVE ( 'NONE', #695, #791, #129, .T. ) ;
#60 = VERTEX_POINT ( 'NONE', #124 ) ;
#61 = DIRECTION ( 'NONE',  ( -0.000000000000000000, 1.000000000000000000, -0.000000000000000000 ) ) ;
#62 = VECTOR ( 'NONE', #401, 999.9999999999998863 ) ;
#63 = ORIENTED_EDGE ( 'NONE', *, *, #826, .T. ) ;
#64 = CARTESIAN_POINT ( 'NONE',  ( -2.366025403784441927, 9.000000000000000000, -4.098076211353314235 ) ) ;
#65 = FACE_OUTER_BOUND ( 'NONE', #1134, .T. ) ;
#66 = VECTOR ( 'NONE', #102, 1000.000000000000000 ) ;
#67 = VECTOR ( 'NONE', #669, 1000.000000000000000 ) ;
#68 = ADVANCED_FACE ( 'NONE', ( #385 ), #482, .F. ) ;
#69 = CARTESIAN_POINT ( 'NONE',  ( 3.000000000000000444, 4.999999999999999112, 1.000000000000000000 ) ) ;
#70 = ORIENTED_EDGE ( 'NONE', *, *, #584, .T. ) ;
#71 = CARTESIAN_POINT ( 'NONE',  ( -4.999999999999999112, 4.999999999999999112, 1.000000000000000000 ) ) ;
#72 = LINE ( 'NONE', #705, #1059 ) ;
#73 = EDGE_CURVE ( 'NONE', #2, #911, #841, .T. ) ;
#74 = ORIENTED_EDGE ( 'NONE', *, *, #484, .T. ) ;
#75 = CYLINDRICAL_SURFACE ( 'NONE', #474, 0.6499999999999941380 ) ;
#76 = DIRECTION ( 'NONE',  ( 0.000000000000000000, 0.000000000000000000, -1.000000000000000000 ) ) ;
#77 = EDGE_CURVE ( 'NONE', #646, #593, #524, .T. ) ;
#78 = VERTEX_POINT ( 'NONE', #296 ) ;
#79 = DIRECTION ( 'NONE',  ( 0.000000000000000000, 0.000000000000000000, 1.000000000000000000 ) ) ;
#80 = CIRCLE ( 'NONE', #211, 0.6499999999999991340 ) ;
#81 = VECTOR ( 'NONE', #318, 1000.000000000000000 ) ;
#82 = ORIENTED_EDGE ( 'NONE', *, *, #940, .T. ) ;
#83 = CIRCLE ( 'NONE', #457, 0.6500000000000000222 ) ;
#84 = DIRECTION ( 'NONE',  ( -1.000000000000000000, 0.000000000000000000, -0.000000000000000000 ) ) ;
#85 = EDGE_LOOP ( 'NONE', ( #478, #520, #554, #141 ) ) ;
#86 = CARTESIAN_POINT ( 'NONE',  ( 3.000000000000000888, 4.999999999999999112, -3.732050807568872752 ) ) ;
#87 = VERTEX_POINT ( 'NONE', #588 ) ;
#88 = DIRECTION ( 'NONE',  ( -0.000000000000000000, 1.000000000000000000, -0.000000000000000000 ) ) ;
#89 = VERTEX_POINT ( 'NONE', #1020 ) ;
#90 = LINE ( 'NONE', #890, #740 ) ;
#91 = ADVANCED_FACE ( 'NONE', ( #65 ), #402, .F. ) ;
#92 = EDGE_LOOP ( 'NONE', ( #131, #765, #778, #858 ) ) ;
#93 = ADVANCED_FACE ( 'NONE', ( #1036 ), #599, .T. ) ;
#94 = DIRECTION ( 'NONE',  ( 2.168404344971008868E-16, -1.000000000000000000, 0.000000000000000000 ) ) ;
#95 = EDGE_LOOP ( 'NONE', ( #628, #667 ) ) ;
#96 = DIRECTION ( 'NONE',  ( 0.8660254037844382635, 3.755786496842894127E-16, -0.5000000000000007772 ) ) ;
#97 = CARTESIAN_POINT ( 'NONE',  ( -0.3300000000000076206, 6.000000000000000000, -1.979999999950993184 ) ) ;
#98 = DIRECTION ( 'NONE',  ( 0.000000000000000000, 0.000000000000000000, 1.000000000000000000 ) ) ;
#99 = CIRCLE ( 'NONE', #1043, 0.6499999999999991340 ) ;
#100 = ORIENTED_EDGE ( 'NONE', *, *, #972, .F. ) ;
#101 = CARTESIAN_POINT ( 'NONE',  ( 5.000000000000000888, 9.000000000000000000, 1.000000000000000000 ) ) ;
#102 = DIRECTION ( 'NONE',  ( 0.000000000000000000, 0.000000000000000000, -1.000000000000000000 ) ) ;
#103 =( LENGTH_UNIT ( ) NAMED_UNIT ( * ) SI_UNIT ( .MILLI., .METRE. ) );
#104 = VERTEX_POINT ( 'NONE', #523 ) ;
#105 = LINE ( 'NONE', #361, #698 ) ;
#106 = EDGE_CURVE ( 'NONE', #548, #976, #407, .T. ) ;
#107 = ORIENTED_EDGE ( 'NONE', *, *, #45, .F. ) ;
#108 = MECHANICAL_DESIGN_GEOMETRIC_PRESENTATION_REPRESENTATION (  '', ( #847 ), #752 ) ;
#109 = PRESENTATION_STYLE_ASSIGNMENT (( #802 ) ) ;
#110 = EDGE_LOOP ( 'NONE', ( #780, #673, #714, #4 ) ) ;
#111 = CYLINDRICAL_SURFACE ( 'NONE', #454, 0.6499999999999941380 ) ;
#112 = DIRECTION ( 'NONE',  ( 2.775557561562793668E-17, 1.000000000000000000, -1.222980050563648509E-16 ) ) ;
#113 = DIRECTION ( 'NONE',  ( 0.000000000000000000, 0.000000000000000000, 1.000000000000000000 ) ) ;
#114 = FACE_OUTER_BOUND ( 'NONE', #306, .T. ) ;
#115 = ORIENTED_EDGE ( 'NONE', *, *, #643, .T. ) ;
#116 = CARTESIAN_POINT ( 'NONE',  ( 4.000000000000000000, 4.999999999999999112, -0.6499999999999994671 ) ) ;
#117 = AXIS2_PLACEMENT_3D ( 'NONE', #389, #276, #123 ) ;
#118 = DIRECTION ( 'NONE',  ( 0.000000000000000000, 0.000000000000000000, 1.000000000000000000 ) ) ;
#119 = EDGE_LOOP ( 'NONE', ( #1076, #1085 ) ) ;
#120 = FACE_OUTER_BOUND ( 'NONE', #843, .T. ) ;
#121 = ORIENTED_EDGE ( 'NONE', *, *, #441, .F. ) ;
#122 = LINE ( 'NONE', #204, #436 ) ;
#123 = DIRECTION ( 'NONE',  ( 0.000000000000000000, 0.000000000000000000, 1.000000000000000000 ) ) ;
#124 = CARTESIAN_POINT ( 'NONE',  ( -6.000000000000000000, 9.000000000000000000, 1.999999999999997335 ) ) ;
#125 = EDGE_CURVE ( 'NONE', #1030, #1113, #149, .T. ) ;
#126 = CARTESIAN_POINT ( 'NONE',  ( 6.000000000000000888, 9.000000000000000000, 1.999999999999997335 ) ) ;
#127 = ORIENTED_EDGE ( 'NONE', *, *, #564, .F. ) ;
#128 = DIRECTION ( 'NONE',  ( -0.000000000000000000, 1.000000000000000000, -0.000000000000000000 ) ) ;
#129 = LINE ( 'NONE', #391, #948 ) ;
#130 = LINE ( 'NONE', #729, #551 ) ;
#131 = ORIENTED_EDGE ( 'NONE', *, *, #875, .T. ) ;
#132 = PLANE ( 'NONE',  #888 ) ;
#133 = VECTOR ( 'NONE', #1138, 1000.000000000000000 ) ;
#134 = DIRECTION ( 'NONE',  ( 4.336808689942012806E-16, -1.000000000000000000, -0.000000000000000000 ) ) ;
#135 = DIRECTION ( 'NONE',  ( 4.336808689942014778E-16, -1.000000000000000000, -0.000000000000000000 ) ) ;
#136 = DIRECTION ( 'NONE',  ( 0.000000000000000000, -1.000000000000000000, 0.000000000000000000 ) ) ;
#137 = ORIENTED_EDGE ( 'NONE', *, *, #980, .F. ) ;
#138 = LINE ( 'NONE', #487, #946 ) ;
#139 = CARTESIAN_POINT ( 'NONE',  ( 6.000000000000000888, 0.000000000000000000, 1.999999999999997335 ) ) ;
#140 = ADVANCED_FACE ( 'NONE', ( #790, #951, #332, #539, #444, #720 ), #266, .T. ) ;
#141 = ORIENTED_EDGE ( 'NONE', *, *, #54, .F. ) ;
#142 = CARTESIAN_POINT ( 'NONE',  ( 2.535898384862246058, 0.000000000000000000, 4.000000000000000888 ) ) ;
#143 = DIRECTION ( 'NONE',  ( 1.084202172485504434E-16, 0.000000000000000000, 1.000000000000000000 ) ) ;
#144 = CARTESIAN_POINT ( 'NONE',  ( -2.535898384862246502, 9.000000000000000000, 4.000000000000000888 ) ) ;
#145 = VERTEX_POINT ( 'NONE', #989 ) ;
#146 = DIRECTION ( 'NONE',  ( -0.000000000000000000, 1.000000000000000000, -0.000000000000000000 ) ) ;
#147 = VECTOR ( 'NONE', #1017, 1000.000000000000000 ) ;
#148 = AXIS2_PLACEMENT_3D ( 'NONE', #97, #722, #113 ) ;
#149 = LINE ( 'NONE', #510, #150 ) ;
#150 = VECTOR ( 'NONE', #246, 1000.000000000000000 ) ;
#151 = ADVANCED_FACE ( 'NONE', ( #252 ), #188, .F. ) ;
#152 = CARTESIAN_POINT ( 'NONE',  ( -0.3000000000000075939, 9.000000000000001776, 1.970000000049005440 ) ) ;
#153 = VERTEX_POINT ( 'NONE', #617 ) ;
#154 = LINE ( 'NONE', #71, #475 ) ;
#155 = EDGE_CURVE ( 'NONE', #293, #31, #984, .T. ) ;
#156 = DIRECTION ( 'NONE',  ( -0.000000000000000000, 1.000000000000000000, -0.000000000000000000 ) ) ;
#157 = ORIENTED_EDGE ( 'NONE', *, *, #321, .F. ) ;
#158 = DIRECTION ( 'NONE',  ( 0.000000000000000000, 0.000000000000000000, 1.000000000000000000 ) ) ;
#159 = EDGE_CURVE ( 'NONE', #760, #2, #99, .T. ) ;
#160 = EDGE_LOOP ( 'NONE', ( #746, #552, #578, #393 ) ) ;
#161 = CARTESIAN_POINT ( 'NONE',  ( -4.000000000000000000, 1.999999999999999112, 0.6500000000000007994 ) ) ;
#162 = VERTEX_POINT ( 'NONE', #184 ) ;
#163 = DIRECTION ( 'NONE',  ( 0.8660254037844380415, -0.000000000000000000, -0.5000000000000009992 ) ) ;
#164 = AXIS2_PLACEMENT_3D ( 'NONE', #952, #237, #518 ) ;
#165 = ORIENTED_EDGE ( 'NONE', *, *, #159, .F. ) ;
#166 = AXIS2_PLACEMENT_3D ( 'NONE', #846, #1115, #568 ) ;
#167 = ORIENTED_EDGE ( 'NONE', *, *, #751, .T. ) ;
#168 = CYLINDRICAL_SURFACE ( 'NONE', #378, 0.6500000000000000222 ) ;
#169 = ADVANCED_FACE ( 'NONE', ( #815 ), #28, .F. ) ;
#170 = VERTEX_POINT ( 'NONE', #821 ) ;
#171 = DIRECTION ( 'NONE',  ( 1.000000000000000000, 0.000000000000000000, -1.084202172485504434E-16 ) ) ;
#172 = PLANE ( 'NONE',  #666 ) ;
#173 = VECTOR ( 'NONE', #741, 1000.000000000000114 ) ;
#174 = ORIENTED_EDGE ( 'NONE', *, *, #910, .T. ) ;
#175 = CARTESIAN_POINT ( 'NONE',  ( -2.535898384862246946, 0.000000000000000000, -3.999999999999999112 ) ) ;
#176 = EDGE_LOOP ( 'NONE', ( #63, #606 ) ) ;
#177 = LINE ( 'NONE', #10, #907 ) ;
#178 = VERTEX_POINT ( 'NONE', #702 ) ;
#179 = CIRCLE ( 'NONE', #1117, 0.6499999999999991340 ) ;
#180 = ADVANCED_FACE ( 'NONE', ( #971 ), #172, .F. ) ;
#181 = CARTESIAN_POINT ( 'NONE',  ( -1.450000000000007505, 9.000000000000000000, 1.400000000049000715 ) ) ;
#182 = VERTEX_POINT ( 'NONE', #435 ) ;
#183 = DIRECTION ( 'NONE',  ( -1.000000000000000000, -0.000000000000000000, -0.000000000000000000 ) ) ;
#184 = CARTESIAN_POINT ( 'NONE',  ( -1.449999999999279421, 6.000000000000000000, -1.419999999951003344 ) ) ;
#185 = ORIENTED_EDGE ( 'NONE', *, *, #243, .F. ) ;
#186 = CARTESIAN_POINT ( 'NONE',  ( -1.449999999999279421, 9.000000000000001776, -0.7699999999510043214 ) ) ;
#187 = LINE ( 'NONE', #101, #540 ) ;
#188 = CYLINDRICAL_SURFACE ( 'NONE', #817, 0.6499999999999999112 ) ;
#189 = ORIENTED_EDGE ( 'NONE', *, *, #751, .F. ) ;
#190 = VECTOR ( 'NONE', #202, 1000.000000000000000 ) ;
#191 = LINE ( 'NONE', #553, #173 ) ;
#192 = VERTEX_POINT ( 'NONE', #1067 ) ;
#193 = CARTESIAN_POINT ( 'NONE',  ( 0.9999999999999915623, 9.000000000000001776, 4.899206040853698596E-11 ) ) ;
#194 = EDGE_LOOP ( 'NONE', ( #931, #590 ) ) ;
#195 = CARTESIAN_POINT ( 'NONE',  ( 0.9999999999999915623, 6.000000000000000000, 0.6500000000489911667 ) ) ;
#196 = CIRCLE ( 'NONE', #522, 0.6499999999999891420 ) ;
#197 = ORIENTED_EDGE ( 'NONE', *, *, #338, .F. ) ;
#198 = CARTESIAN_POINT ( 'NONE',  ( -4.999999999999999112, 4.999999999999999112, 1.000000000000000000 ) ) ;
#199 = LINE ( 'NONE', #1028, #869 ) ;
#200 = ADVANCED_FACE ( 'NONE', ( #657 ), #47, .T. ) ;
#201 = CARTESIAN_POINT ( 'NONE',  ( -6.000000000000000888, 0.000000000000000000, -1.999999999999995781 ) ) ;
#202 = DIRECTION ( 'NONE',  ( -4.336808689942018722E-16, 1.000000000000000000, -2.503857664561936813E-16 ) ) ;
#203 = ORIENTED_EDGE ( 'NONE', *, *, #653, .F. ) ;
#204 = CARTESIAN_POINT ( 'NONE',  ( -0.3000000000000075384, 9.000000000000000000, 1.320000000049011302 ) ) ;
#205 = CYLINDRICAL_SURFACE ( 'NONE', #166, 0.6499999999999941380 ) ;
#206 = CARTESIAN_POINT ( 'NONE',  ( 6.000000000000000000, 9.000000000000000000, -1.999999999999993561 ) ) ;
#207 = VERTEX_POINT ( 'NONE', #573 ) ;
#208 = LINE ( 'NONE', #1016, #1021 ) ;
#209 = DIRECTION ( 'NONE',  ( 1.084202172485504311E-16, -1.000000000000000000, 6.259644161404839569E-17 ) ) ;
#210 = DIRECTION ( 'NONE',  ( 1.000000000000000000, 2.168404344971008868E-16, 0.000000000000000000 ) ) ;
#211 = AXIS2_PLACEMENT_3D ( 'NONE', #326, #693, #544 ) ;
#212 = EDGE_LOOP ( 'NONE', ( #742, #711, #896, #253 ) ) ;
#213 = DIRECTION ( 'NONE',  ( -0.000000000000000000, 1.000000000000000000, -0.000000000000000000 ) ) ;
#214 = CIRCLE ( 'NONE', #835, 0.6500000000000000222 ) ;
#215 = AXIS2_PLACEMENT_3D ( 'NONE', #198, #388, #820 ) ;
#216 = CARTESIAN_POINT ( 'NONE',  ( 5.000000000000000888, 9.000000000000000000, -2.577350269189620402 ) ) ;
#217 = ORIENTED_EDGE ( 'NONE', *, *, #1068, .T. ) ;
#218 = DIRECTION ( 'NONE',  ( 2.775557561562793668E-17, 1.000000000000000000, -1.222980050563648509E-16 ) ) ;
#219 = ORIENTED_EDGE ( 'NONE', *, *, #601, .T. ) ;
#220 = LINE ( 'NONE', #661, #147 ) ;
#221 = CARTESIAN_POINT ( 'NONE',  ( -1.450000000000007505, 9.000000000000000000, 0.1000000000490124941 ) ) ;
#222 = CARTESIAN_POINT ( 'NONE',  ( -2.999999999999999556, 9.000000000000000000, 1.000000000000000000 ) ) ;
#223 = ORIENTED_EDGE ( 'NONE', *, *, #1007, .T. ) ;
#224 = VECTOR ( 'NONE', #546, 1000.000000000000114 ) ;
#225 = CARTESIAN_POINT ( 'NONE',  ( 2.535898384862249610, 9.000000000000000000, 4.000000000000000888 ) ) ;
#226 = EDGE_CURVE ( 'NONE', #335, #607, #1132, .T. ) ;
#227 = CARTESIAN_POINT ( 'NONE',  ( -2.535898384862246502, 0.000000000000000000, 4.000000000000000888 ) ) ;
#228 = ORIENTED_EDGE ( 'NONE', *, *, #1032, .F. ) ;
#229 = DIRECTION ( 'NONE',  ( -0.000000000000000000, 0.000000000000000000, 1.000000000000000000 ) ) ;
#230 = VECTOR ( 'NONE', #851, 1000.000000000000000 ) ;
#231 = VECTOR ( 'NONE', #816, 1000.000000000000000 ) ;
#232 = EDGE_CURVE ( 'NONE', #162, #517, #644, .T. ) ;
#233 = CARTESIAN_POINT ( 'NONE',  ( 0.9999999999999915623, 9.000000000000000000, -0.6499999999510021054 ) ) ;
#234 = ORIENTED_EDGE ( 'NONE', *, *, #922, .T. ) ;
#235 = DIRECTION ( 'NONE',  ( -0.000000000000000000, 1.000000000000000000, -0.000000000000000000 ) ) ;
#236 = ORIENTED_EDGE ( 'NONE', *, *, #77, .F. ) ;
#237 = DIRECTION ( 'NONE',  ( 0.000000000000000000, -1.000000000000000000, 0.000000000000000000 ) ) ;
#238 = ORIENTED_EDGE ( 'NONE', *, *, #232, .F. ) ;
#239 = CARTESIAN_POINT ( 'NONE',  ( 2.366025403784440151, 9.000000000000000000, -4.098076211353312459 ) ) ;
#240 = CIRCLE ( 'NONE', #900, 0.6499999999999991340 ) ;
#241 = ORIENTED_EDGE ( 'NONE', *, *, #723, .T. ) ;
#242 = DIRECTION ( 'NONE',  ( -0.000000000000000000, 1.000000000000000000, -0.000000000000000000 ) ) ;
#243 = EDGE_CURVE ( 'NONE', #1113, #448, #902, .T. ) ;
#244 = ORIENTED_EDGE ( 'NONE', *, *, #257, .F. ) ;
#245 = CARTESIAN_POINT ( 'NONE',  ( -1.450000000000007505, 9.000000000000001776, 0.7500000000490065766 ) ) ;
#246 = DIRECTION ( 'NONE',  ( 0.000000000000000000, 0.000000000000000000, -1.000000000000000000 ) ) ;
#247 = VECTOR ( 'NONE', #839, 1000.000000000000000 ) ;
#248 = ORIENTED_EDGE ( 'NONE', *, *, #697, .T. ) ;
#249 = VECTOR ( 'NONE', #112, 1000.000000000000000 ) ;
#250 = DIRECTION ( 'NONE',  ( -0.000000000000000000, 1.000000000000000000, -0.000000000000000000 ) ) ;
#251 = CARTESIAN_POINT ( 'NONE',  ( -4.000000000000000000, 4.999999999999999112, 4.891320649860899617E-16 ) ) ;
#252 = FACE_OUTER_BOUND ( 'NONE', #784, .T. ) ;
#253 = ORIENTED_EDGE ( 'NONE', *, *, #800, .T. ) ;
#254 = PLANE ( 'NONE',  #392 ) ;
#255 = ORIENTED_EDGE ( 'NONE', *, *, #562, .T. ) ;
#256 = CARTESIAN_POINT ( 'NONE',  ( -0.3000000000000075384, 9.000000000000001776, 1.320000000049016409 ) ) ;
#257 = EDGE_CURVE ( 'NONE', #89, #182, #934, .T. ) ;
#258 = DIRECTION ( 'NONE',  ( 2.775557561562793668E-17, 1.000000000000000000, -1.222980050563648509E-16 ) ) ;
#259 = LINE ( 'NONE', #624, #1054 ) ;
#260 = DIRECTION ( 'NONE',  ( -1.000000000000000000, -0.000000000000000000, -0.000000000000000000 ) ) ;
#261 = ORIENTED_EDGE ( 'NONE', *, *, #762, .T. ) ;
#262 = ADVANCED_FACE ( 'NONE', ( #561 ), #205, .F. ) ;
#263 = VECTOR ( 'NONE', #451, 1000.000000000000000 ) ;
#264 =( NAMED_UNIT ( * ) PLANE_ANGLE_UNIT ( ) SI_UNIT ( $, .RADIAN. ) );
#265 = CARTESIAN_POINT ( 'NONE',  ( -6.000000000000000888, 9.000000000000000000, -3.999999999999999112 ) ) ;
#266 = PLANE ( 'NONE',  #504 ) ;
#267 = ORIENTED_EDGE ( 'NONE', *, *, #562, .F. ) ;
#268 = DIRECTION ( 'NONE',  ( 0.000000000000000000, -0.000000000000000000, -1.000000000000000000 ) ) ;
#269 = ORIENTED_EDGE ( 'NONE', *, *, #757, .T. ) ;
#270 = DIRECTION ( 'NONE',  ( 3.252606517456512809E-16, 0.000000000000000000, 1.000000000000000000 ) ) ;
#271 = ORIENTED_EDGE ( 'NONE', *, *, #516, .T. ) ;
#272 = CARTESIAN_POINT ( 'NONE',  ( -1.450000000000008171, 6.000000000000000000, 0.7500000000490065766 ) ) ;
#273 = EDGE_CURVE ( 'NONE', #593, #646, #83, .T. ) ;
#274 = ORIENTED_EDGE ( 'NONE', *, *, #697, .F. ) ;
#275 = DIRECTION ( 'NONE',  ( -4.336808689942018722E-16, 1.000000000000000000, -0.000000000000000000 ) ) ;
#276 = DIRECTION ( 'NONE',  ( -0.000000000000000000, 1.000000000000000000, -0.000000000000000000 ) ) ;
#277 = PRODUCT_RELATED_PRODUCT_CATEGORY ( 'part', '', ( #1035 ) ) ;
#278 = VERTEX_POINT ( 'NONE', #1000 ) ;
#279 = FACE_OUTER_BOUND ( 'NONE', #704, .T. ) ;
#280 = CIRCLE ( 'NONE', #679, 0.6499999999999999112 ) ;
#281 = ORIENTED_EDGE ( 'NONE', *, *, #860, .T. ) ;
#282 = DIRECTION ( 'NONE',  ( 2.775557561562793668E-17, 1.000000000000000000, -1.222980050563648509E-16 ) ) ;
#283 = EDGE_LOOP ( 'NONE', ( #37, #1039, #541, #1122 ) ) ;
#284 = PLANE ( 'NONE',  #1118 ) ;
#285 = VECTOR ( 'NONE', #143, 1000.000000000000000 ) ;
#286 = DIRECTION ( 'NONE',  ( -1.000000000000000000, 0.000000000000000000, 0.000000000000000000 ) ) ;
#287 = CARTESIAN_POINT ( 'NONE',  ( -4.000000000000000000, 1.999999999999999112, 8.560260801551845635E-16 ) ) ;
#288 = ORIENTED_EDGE ( 'NONE', *, *, #431, .F. ) ;
#289 = PLANE ( 'NONE',  #215 ) ;
#290 = CARTESIAN_POINT ( 'NONE',  ( 3.000000000000000000, 9.000000000000000000, -3.732050807568874085 ) ) ;
#291 = DIRECTION ( 'NONE',  ( -0.000000000000000000, 1.000000000000000000, -0.000000000000000000 ) ) ;
#292 = CIRCLE ( 'NONE', #733, 0.6499999999999891420 ) ;
#293 = VERTEX_POINT ( 'NONE', #1090 ) ;
#294 = DIRECTION ( 'NONE',  ( 0.000000000000000000, 0.000000000000000000, 1.000000000000000000 ) ) ;
#295 = DIRECTION ( 'NONE',  ( 0.000000000000000000, 0.000000000000000000, 1.000000000000000000 ) ) ;
#296 = CARTESIAN_POINT ( 'NONE',  ( 5.000000000000000888, 9.000000000000000000, 1.000000000000000000 ) ) ;
#297 = DIRECTION ( 'NONE',  ( 0.000000000000000000, 0.000000000000000000, 1.000000000000000000 ) ) ;
#298 = ORIENTED_EDGE ( 'NONE', *, *, #622, .F. ) ;
#299 = FACE_OUTER_BOUND ( 'NONE', #92, .T. ) ;
#300 = AXIS2_PLACEMENT_3D ( 'NONE', #731, #834, #479 ) ;
#301 = ORIENTED_EDGE ( 'NONE', *, *, #701, .T. ) ;
#302 = DIRECTION ( 'NONE',  ( -0.000000000000000000, 1.000000000000000000, -0.000000000000000000 ) ) ;
#303 = VECTOR ( 'NONE', #750, 1000.000000000000000 ) ;
#304 = EDGE_LOOP ( 'NONE', ( #387, #189, #862, #244 ) ) ;
#305 = DIRECTION ( 'NONE',  ( 0.000000000000000000, 0.000000000000000000, 1.000000000000000000 ) ) ;
#306 = EDGE_LOOP ( 'NONE', ( #238, #788, #827, #340 ) ) ;
#307 = DIRECTION ( 'NONE',  ( 0.000000000000000000, 0.000000000000000000, 1.000000000000000000 ) ) ;
#308 = CARTESIAN_POINT ( 'NONE',  ( -4.000000000000000000, 4.999999999999999112, 4.891320649860899617E-16 ) ) ;
#309 =( NAMED_UNIT ( * ) PLANE_ANGLE_UNIT ( ) SI_UNIT ( $, .RADIAN. ) );
#310 = CARTESIAN_POINT ( 'NONE',  ( -6.000000000000000888, 9.000000000000000000, -1.999999999999995781 ) ) ;
#311 = ORIENTED_EDGE ( 'NONE', *, *, #601, .F. ) ;
#312 = DIRECTION ( 'NONE',  ( 0.000000000000000000, -0.000000000000000000, -1.000000000000000000 ) ) ;
#313 = ADVANCED_FACE ( 'NONE', ( #840, #581 ), #284, .T. ) ;
#314 = CARTESIAN_POINT ( 'NONE',  ( 0.000000000000000000, 0.000000000000000000, 1.000000000000000000 ) ) ;
#315 = VECTOR ( 'NONE', #416, 1000.000000000000000 ) ;
#316 = ORIENTED_EDGE ( 'NONE', *, *, #894, .T. ) ;
#317 = LINE ( 'NONE', #225, #813 ) ;
#318 = DIRECTION ( 'NONE',  ( 1.000000000000000000, 0.000000000000000000, 0.000000000000000000 ) ) ;
#319 = ORIENTED_EDGE ( 'NONE', *, *, #853, .F. ) ;
#320 = LINE ( 'NONE', #239, #1074 ) ;
#321 = EDGE_CURVE ( 'NONE', #607, #335, #610, .T. ) ;
#322 = VERTEX_POINT ( 'NONE', #395 ) ;
#323 = EDGE_CURVE ( 'NONE', #322, #153, #921, .T. ) ;
#324 = DIRECTION ( 'NONE',  ( -0.000000000000000000, 1.000000000000000000, -0.000000000000000000 ) ) ;
#325 = ORIENTED_EDGE ( 'NONE', *, *, #339, .T. ) ;
#326 = CARTESIAN_POINT ( 'NONE',  ( -0.3300000000000076206, 6.000000000000000000, -1.979999999950993184 ) ) ;
#327 = VECTOR ( 'NONE', #88, 1000.000000000000000 ) ;
#328 = ORIENTED_EDGE ( 'NONE', *, *, #125, .F. ) ;
#329 = FACE_OUTER_BOUND ( 'NONE', #502, .T. ) ;
#330 = VERTEX_POINT ( 'NONE', #139 ) ;
#331 = CARTESIAN_POINT ( 'NONE',  ( 4.000000000000000000, 4.999999999999999112, 0.6500000000000003553 ) ) ;
#332 = FACE_BOUND ( 'NONE', #1062, .T. ) ;
#333 = CIRCLE ( 'NONE', #399, 0.6499999999999995781 ) ;
#334 = VECTOR ( 'NONE', #61, 1000.000000000000000 ) ;
#335 = VERTEX_POINT ( 'NONE', #586 ) ;
#336 = CIRCLE ( 'NONE', #580, 0.6499999999999995781 ) ;
#337 = DIRECTION ( 'NONE',  ( -0.000000000000000000, 1.000000000000000000, -0.000000000000000000 ) ) ;
#338 = EDGE_CURVE ( 'NONE', #192, #104, #985, .T. ) ;
#339 = EDGE_CURVE ( 'NONE', #1057, #162, #1024, .T. ) ;
#340 = ORIENTED_EDGE ( 'NONE', *, *, #483, .T. ) ;
#341 = CARTESIAN_POINT ( 'NONE',  ( -1.450000000000007505, 9.000000000000000000, 0.7500000000490065766 ) ) ;
#342 = EDGE_CURVE ( 'NONE', #9, #646, #199, .T. ) ;
#343 = CARTESIAN_POINT ( 'NONE',  ( 4.000000000000000000, 1.999999999999999112, 8.561459906339234470E-16 ) ) ;
#344 = DIRECTION ( 'NONE',  ( -0.000000000000000000, 1.000000000000000000, -0.000000000000000000 ) ) ;
#345 = ORIENTED_EDGE ( 'NONE', *, *, #465, .T. ) ;
#346 = CARTESIAN_POINT ( 'NONE',  ( -2.366025403784441927, 9.000000000000000000, -4.098076211353314235 ) ) ;
#347 = EDGE_CURVE ( 'NONE', #182, #78, #220, .T. ) ;
#348 =( GEOMETRIC_REPRESENTATION_CONTEXT ( 3 ) GLOBAL_UNCERTAINTY_ASSIGNED_CONTEXT ( ( #807 ) ) GLOBAL_UNIT_ASSIGNED_CONTEXT ( ( #489, #309, #848 ) ) REPRESENTATION_CONTEXT ( 'NONE', 'WORKASPACE' ) );
#349 = ORIENTED_EDGE ( 'NONE', *, *, #465, .F. ) ;
#350 = CARTESIAN_POINT ( 'NONE',  ( -1.450000000000007505, 6.000000000000000000, 0.7500000000490065766 ) ) ;
#351 = ORIENTED_EDGE ( 'NONE', *, *, #757, .F. ) ;
#352 = DIRECTION ( 'NONE',  ( 0.000000000000000000, 1.222980050563648509E-16, 1.000000000000000000 ) ) ;
#353 = CIRCLE ( 'NONE', #645, 0.6499999999999891420 ) ;
#354 = PRODUCT_DEFINITION_CONTEXT ( 'detailed design', #930, 'design' ) ;
#355 = AXIS2_PLACEMENT_3D ( 'NONE', #245, #146, #307 ) ;
#356 = ORIENTED_EDGE ( 'NONE', *, *, #441, .T. ) ;
#357 = AXIS2_PLACEMENT_3D ( 'NONE', #193, #128, #555 ) ;
#358 = CARTESIAN_POINT ( 'NONE',  ( 3.000000000000000000, 9.000000000000000000, 1.000000000000000000 ) ) ;
#359 = VECTOR ( 'NONE', #58, 999.9999999999998863 ) ;
#360 = VERTEX_POINT ( 'NONE', #216 ) ;
#361 = CARTESIAN_POINT ( 'NONE',  ( 4.000000000000000000, 1.999999999999999112, 0.6500000000000006883 ) ) ;
#362 = CARTESIAN_POINT ( 'NONE',  ( 0.9999999999999915623, 9.000000000000000000, 4.899206040853698596E-11 ) ) ;
#363 = CARTESIAN_POINT ( 'NONE',  ( -6.000000000000000888, 9.000000000000000000, -3.999999999999999112 ) ) ;
#364 = ADVANCED_FACE ( 'NONE', ( #938 ), #494, .F. ) ;
#365 = EDGE_CURVE ( 'NONE', #876, #791, #317, .T. ) ;
#366 = CARTESIAN_POINT ( 'NONE',  ( -4.999999999999999112, 4.999999999999999112, -2.577350269189622622 ) ) ;
#367 = ORIENTED_EDGE ( 'NONE', *, *, #615, .F. ) ;
#368 = DIRECTION ( 'NONE',  ( -0.5000000000000006661, 0.000000000000000000, 0.8660254037844383745 ) ) ;
#369 = DIRECTION ( 'NONE',  ( -4.336808689942012806E-16, 1.000000000000000000, 0.000000000000000000 ) ) ;
#370 = EDGE_CURVE ( 'NONE', #791, #87, #1126, .T. ) ;
#371 = ORIENTED_EDGE ( 'NONE', *, *, #8, .F. ) ;
#372 = AXIS2_PLACEMENT_3D ( 'NONE', #49, #1003, #842 ) ;
#373 = CARTESIAN_POINT ( 'NONE',  ( -4.000000000000000000, 1.999999999999999112, 8.560260801551845635E-16 ) ) ;
#374 = ORIENTED_EDGE ( 'NONE', *, *, #155, .T. ) ;
#375 = LINE ( 'NONE', #32, #438 ) ;
#376 = CARTESIAN_POINT ( 'NONE',  ( -4.000000000000000000, 1.999999999999999112, 8.560260801551845635E-16 ) ) ;
#377 = AXIS2_PLACEMENT_3D ( 'NONE', #515, #521, #1135 ) ;
#378 = AXIS2_PLACEMENT_3D ( 'NONE', #950, #960, #79 ) ;
#379 = DIRECTION ( 'NONE',  ( 0.000000000000000000, 0.000000000000000000, 1.000000000000000000 ) ) ;
#380 = EDGE_LOOP ( 'NONE', ( #1010, #770, #421, #241, #121, #898, #107, #371 ) ) ;
#381 = LINE ( 'NONE', #459, #963 ) ;
#382 = EDGE_CURVE ( 'NONE', #911, #278, #739, .T. ) ;
#383 = ADVANCED_FACE ( 'NONE', ( #406 ), #168, .F. ) ;
#384 = DIRECTION ( 'NONE',  ( -0.000000000000000000, 1.000000000000000000, -0.000000000000000000 ) ) ;
#385 = FACE_OUTER_BOUND ( 'NONE', #716, .T. ) ;
#386 = PLANE ( 'NONE',  #372 ) ;
#387 = ORIENTED_EDGE ( 'NONE', *, *, #36, .F. ) ;
#388 = DIRECTION ( 'NONE',  ( -4.336808689942014778E-16, 1.000000000000000000, 0.000000000000000000 ) ) ;
#389 = CARTESIAN_POINT ( 'NONE',  ( -0.3000000000000075939, 6.000000000000000000, 1.970000000049005440 ) ) ;
#390 = EDGE_CURVE ( 'NONE', #50, #192, #605, .T. ) ;
#391 = CARTESIAN_POINT ( 'NONE',  ( -6.000000000000000000, 9.000000000000000000, 4.000000000000000888 ) ) ;
#392 = AXIS2_PLACEMENT_3D ( 'NONE', #786, #619, #535 ) ;
#393 = ORIENTED_EDGE ( 'NONE', *, *, #958, .F. ) ;
#394 = CARTESIAN_POINT ( 'NONE',  ( -0.3300000000000076206, 9.000000000000001776, -1.979999999950993184 ) ) ;
#395 = CARTESIAN_POINT ( 'NONE',  ( -6.000000000000000888, 0.000000000000000000, -1.999999999999995781 ) ) ;
#396 = CARTESIAN_POINT ( 'NONE',  ( -0.3300000000000075651, 6.000000000000000000, -2.629999999950992429 ) ) ;
#397 = ORIENTED_EDGE ( 'NONE', *, *, #226, .T. ) ;
#398 = PLANE ( 'NONE',  #721 ) ;
#399 = AXIS2_PLACEMENT_3D ( 'NONE', #251, #614, #1065 ) ;
#400 = ORIENTED_EDGE ( 'NONE', *, *, #622, .T. ) ;
#401 = DIRECTION ( 'NONE',  ( -0.8660254037844382635, -0.000000000000000000, 0.5000000000000007772 ) ) ;
#402 = CYLINDRICAL_SURFACE ( 'NONE', #649, 0.6499999999999941380 ) ;
#403 = ADVANCED_FACE ( 'NONE', ( #688 ), #766, .F. ) ;
#404 = PLANE ( 'NONE',  #647 ) ;
#405 = EDGE_LOOP ( 'NONE', ( #604, #374, #1053, #1027 ) ) ;
#406 = FACE_OUTER_BOUND ( 'NONE', #405, .T. ) ;
#407 = LINE ( 'NONE', #694, #857 ) ;
#408 = DIRECTION ( 'NONE',  ( 0.5000000000000007772, 0.000000000000000000, 0.8660254037844382635 ) ) ;
#409 = AXIS2_PLACEMENT_3D ( 'NONE', #272, #136, #268 ) ;
#410 = ORIENTED_EDGE ( 'NONE', *, *, #505, .F. ) ;
#411 = CARTESIAN_POINT ( 'NONE',  ( -5.000000000000000000, 9.000000000000000000, 1.000000000000000000 ) ) ;
#412 = CARTESIAN_POINT ( 'NONE',  ( -6.000000000000000000, 9.000000000000000000, 4.000000000000000888 ) ) ;
#413 = CIRCLE ( 'NONE', #377, 0.6499999999999891420 ) ;
#414 = VECTOR ( 'NONE', #726, 999.9999999999998863 ) ;
#415 = ORIENTED_EDGE ( 'NONE', *, *, #232, .T. ) ;
#416 = DIRECTION ( 'NONE',  ( 0.000000000000000000, 0.000000000000000000, -1.000000000000000000 ) ) ;
#417 = EDGE_CURVE ( 'NONE', #1103, #530, #677, .T. ) ;
#418 = VECTOR ( 'NONE', #795, 1000.000000000000000 ) ;
#419 = VECTOR ( 'NONE', #209, 1000.000000000000000 ) ;
#420 = AXIS2_PLACEMENT_3D ( 'NONE', #466, #302, #1111 ) ;
#421 = ORIENTED_EDGE ( 'NONE', *, *, #569, .T. ) ;
#422 = FACE_OUTER_BOUND ( 'NONE', #380, .T. ) ;
#423 = ORIENTED_EDGE ( 'NONE', *, *, #1046, .F. ) ;
#424 = CARTESIAN_POINT ( 'NONE',  ( -0.3300000000000083977, 6.000000000000000000, -1.979999999950993184 ) ) ;
#425 = DIRECTION ( 'NONE',  ( 4.336808689942018722E-16, -1.000000000000000000, 0.000000000000000000 ) ) ;
#426 = VERTEX_POINT ( 'NONE', #1040 ) ;
#427 = FACE_OUTER_BOUND ( 'NONE', #545, .T. ) ;
#428 = ORIENTED_EDGE ( 'NONE', *, *, #516, .F. ) ;
#429 = PLANE ( 'NONE',  #46 ) ;
#430 = ORIENTED_EDGE ( 'NONE', *, *, #382, .T. ) ;
#431 = EDGE_CURVE ( 'NONE', #426, #935, #154, .T. ) ;
#432 = ADVANCED_FACE ( 'NONE', ( #771 ), #598, .F. ) ;
#433 = EDGE_CURVE ( 'NONE', #571, #655, #556, .T. ) ;
#434 = CARTESIAN_POINT ( 'NONE',  ( -1.449999999999279421, 9.000000000000001776, -1.419999999950993352 ) ) ;
#435 = CARTESIAN_POINT ( 'NONE',  ( 5.000000000000002665, 5.000000000000000000, 1.000000000000000000 ) ) ;
#436 = VECTOR ( 'NONE', #567, 1000.000000000000000 ) ;
#437 = CIRCLE ( 'NONE', #148, 0.6499999999999991340 ) ;
#438 = VECTOR ( 'NONE', #737, 1000.000000000000000 ) ;
#439 = CARTESIAN_POINT ( 'NONE',  ( -6.000000000000000888, 9.000000000000000000, -1.999999999999995781 ) ) ;
#440 = LINE ( 'NONE', #1063, #57 ) ;
#441 = EDGE_CURVE ( 'NONE', #1087, #611, #594, .T. ) ;
#442 = ORIENTED_EDGE ( 'NONE', *, *, #321, .T. ) ;
#443 = CARTESIAN_POINT ( 'NONE',  ( -5.000000000000000000, 9.000000000000000000, -2.577350269189622622 ) ) ;
#444 = FACE_BOUND ( 'NONE', #725, .T. ) ;
#445 = CARTESIAN_POINT ( 'NONE',  ( -4.000000000000000000, 4.999999999999999112, -0.6499999999999994671 ) ) ;
#446 = CARTESIAN_POINT ( 'NONE',  ( 4.000000000000000000, 1.999999999999999112, 8.561459906339234470E-16 ) ) ;
#447 = VECTOR ( 'NONE', #1075, 1000.000000000000000 ) ;
#448 = VERTEX_POINT ( 'NONE', #86 ) ;
#449 = SURFACE_SIDE_STYLE ('',( #5 ) ) ;
#450 = EDGE_LOOP ( 'NONE', ( #137, #753, #430, #470 ) ) ;
#451 = DIRECTION ( 'NONE',  ( 0.000000000000000000, -1.000000000000000000, 0.000000000000000000 ) ) ;
#452 = DIRECTION ( 'NONE',  ( 0.000000000000000000, 0.000000000000000000, 1.000000000000000000 ) ) ;
#453 = LINE ( 'NONE', #439, #231 ) ;
#454 = AXIS2_PLACEMENT_3D ( 'NONE', #341, #19, #789 ) ;
#455 = CIRCLE ( 'NONE', #854, 0.6499999999999999112 ) ;
#456 = CARTESIAN_POINT ( 'NONE',  ( 3.000000000000000444, 9.000000000000000000, -3.732050807568873196 ) ) ;
#457 = AXIS2_PLACEMENT_3D ( 'NONE', #926, #134, #481 ) ;
#458 = ORIENTED_EDGE ( 'NONE', *, *, #933, .F. ) ;
#459 = CARTESIAN_POINT ( 'NONE',  ( -2.999999999999999556, 9.000000000000000000, 1.000000000000000000 ) ) ;
#460 = DIRECTION ( 'NONE',  ( 0.000000000000000000, 1.000000000000000000, 0.000000000000000000 ) ) ;
#461 = EDGE_LOOP ( 'NONE', ( #234, #600 ) ) ;
#462 = CARTESIAN_POINT ( 'NONE',  ( -6.000000000000000888, 9.000000000000000000, -3.999999999999999112 ) ) ;
#463 = ORIENTED_EDGE ( 'NONE', *, *, #764, .F. ) ;
#464 = CARTESIAN_POINT ( 'NONE',  ( -0.3000000000000075939, 9.000000000000001776, 2.620000000048994693 ) ) ;
#465 = EDGE_CURVE ( 'NONE', #1140, #104, #1123, .T. ) ;
#466 = CARTESIAN_POINT ( 'NONE',  ( -0.3300000000000076206, 9.000000000000001776, -1.979999999950993184 ) ) ;
#467 = AXIS2_PLACEMENT_3D ( 'NONE', #710, #250, #630 ) ;
#468 = CARTESIAN_POINT ( 'NONE',  ( -5.000000000000000000, 9.000000000000000000, 1.000000000000000000 ) ) ;
#469 = EDGE_CURVE ( 'NONE', #178, #548, #509, .T. ) ;
#470 = ORIENTED_EDGE ( 'NONE', *, *, #940, .F. ) ;
#471 = FACE_OUTER_BOUND ( 'NONE', #528, .T. ) ;
#472 = DIRECTION ( 'NONE',  ( -1.000000000000000000, -4.336808689942018722E-16, 0.000000000000000000 ) ) ;
#473 = CARTESIAN_POINT ( 'NONE',  ( -1.449999999999279421, 9.000000000000000000, -0.7699999999510043214 ) ) ;
#474 = AXIS2_PLACEMENT_3D ( 'NONE', #867, #683, #1045 ) ;
#475 = VECTOR ( 'NONE', #608, 1000.000000000000000 ) ;
#476 = FACE_OUTER_BOUND ( 'NONE', #95, .T. ) ;
#477 = AXIS2_PLACEMENT_3D ( 'NONE', #310, #408, #779 ) ;
#478 = ORIENTED_EDGE ( 'NONE', *, *, #417, .F. ) ;
#479 = DIRECTION ( 'NONE',  ( 0.000000000000000000, 0.000000000000000000, 1.000000000000000000 ) ) ;
#480 = ADVANCED_FACE ( 'NONE', ( #863 ), #75, .F. ) ;
#481 = DIRECTION ( 'NONE',  ( -1.000000000000000000, 0.000000000000000000, 0.000000000000000000 ) ) ;
#482 = CYLINDRICAL_SURFACE ( 'NONE', #1022, 0.6499999999999941380 ) ;
#483 = EDGE_CURVE ( 'NONE', #585, #517, #353, .T. ) ;
#484 = EDGE_CURVE ( 'NONE', #798, #914, #413, .T. ) ;
#485 = DIRECTION ( 'NONE',  ( 0.000000000000000000, -1.000000000000000000, 0.000000000000000000 ) ) ;
#486 = ORIENTED_EDGE ( 'NONE', *, *, #125, .T. ) ;
#487 = CARTESIAN_POINT ( 'NONE',  ( -2.366025403784443260, 9.000000000000000000, 4.098076211353315124 ) ) ;
#488 = CARTESIAN_POINT ( 'NONE',  ( 3.000000000000000444, 4.999999999999999112, 1.000000000000000000 ) ) ;
#489 =( LENGTH_UNIT ( ) NAMED_UNIT ( * ) SI_UNIT ( .MILLI., .METRE. ) );
#490 = VECTOR ( 'NONE', #485, 1000.000000000000000 ) ;
#491 = EDGE_LOOP ( 'NONE', ( #557, #868 ) ) ;
#492 = CARTESIAN_POINT ( 'NONE',  ( 2.535898384862246058, 9.000000000000000000, 4.000000000000000888 ) ) ;
#493 = ORIENTED_EDGE ( 'NONE', *, *, #584, .F. ) ;
#494 = CYLINDRICAL_SURFACE ( 'NONE', #1041, 0.6500000000000000222 ) ;
#495 = EDGE_CURVE ( 'NONE', #692, #360, #320, .T. ) ;
#496 = APPLICATION_PROTOCOL_DEFINITION ( 'draft international standard', 'automotive_design', 1998, #930 ) ;
#497 = VECTOR ( 'NONE', #163, 1000.000000000000000 ) ;
#498 = PRODUCT_DEFINITION ( 'ๆ', '', #829, #354 ) ;
#499 = DIRECTION ( 'NONE',  ( 0.000000000000000000, 1.000000000000000000, 0.000000000000000000 ) ) ;
#500 = CIRCLE ( 'NONE', #772, 0.6499999999999891420 ) ;
#501 = CIRCLE ( 'NONE', #974, 0.6499999999999991340 ) ;
#502 = EDGE_LOOP ( 'NONE', ( #410, #25, #808, #349 ) ) ;
#503 = CARTESIAN_POINT ( 'NONE',  ( -0.3000000000000075939, 9.000000000000001776, 1.970000000049005440 ) ) ;
#504 = AXIS2_PLACEMENT_3D ( 'NONE', #632, #460, #627 ) ;
#505 = EDGE_CURVE ( 'NONE', #50, #1140, #80, .T. ) ;
#506 = ADVANCED_BREP_SHAPE_REPRESENTATION ( 'InstallUtilBolck', ( #962, #939 ), #348 ) ;
#507 = CARTESIAN_POINT ( 'NONE',  ( 4.000000000000000000, 1.999999999999999112, 8.561459906339234470E-16 ) ) ;
#508 = ORIENTED_EDGE ( 'NONE', *, *, #547, .T. ) ;
#509 = LINE ( 'NONE', #781, #718 ) ;
#510 = CARTESIAN_POINT ( 'NONE',  ( 3.000000000000000000, 9.000000000000000000, 1.000000000000000000 ) ) ;
#511 = DIRECTION ( 'NONE',  ( -3.252606517456513302E-16, -0.000000000000000000, -1.000000000000000000 ) ) ;
#512 = ADVANCED_FACE ( 'NONE', ( #899 ), #111, .F. ) ;
#513 = AXIS2_PLACEMENT_3D ( 'NONE', #468, #210, #648 ) ;
#514 = VERTEX_POINT ( 'NONE', #799 ) ;
#515 = CARTESIAN_POINT ( 'NONE',  ( 0.9999999999999915623, 9.000000000000001776, 4.899206040853698596E-11 ) ) ;
#516 = EDGE_CURVE ( 'NONE', #87, #330, #717, .T. ) ;
#517 = VERTEX_POINT ( 'NONE', #434 ) ;
#518 = DIRECTION ( 'NONE',  ( 0.000000000000000000, -0.000000000000000000, -1.000000000000000000 ) ) ;
#519 = VECTOR ( 'NONE', #213, 1000.000000000000000 ) ;
#520 = ORIENTED_EDGE ( 'NONE', *, *, #912, .T. ) ;
#521 = DIRECTION ( 'NONE',  ( -0.000000000000000000, 1.000000000000000000, -0.000000000000000000 ) ) ;
#522 = AXIS2_PLACEMENT_3D ( 'NONE', #394, #754, #651 ) ;
#523 = CARTESIAN_POINT ( 'NONE',  ( -0.3300000000000076206, 9.000000000000001776, -1.329999999951004153 ) ) ;
#524 = CIRCLE ( 'NONE', #703, 0.6500000000000000222 ) ;
#525 = ORIENTED_EDGE ( 'NONE', *, *, #569, .F. ) ;
#526 = ORIENTED_EDGE ( 'NONE', *, *, #1007, .F. ) ;
#527 = DIRECTION ( 'NONE',  ( 0.000000000000000000, 0.000000000000000000, 1.000000000000000000 ) ) ;
#528 = EDGE_LOOP ( 'NONE', ( #203, #157, #115, #1079 ) ) ;
#529 = PLANE ( 'NONE',  #513 ) ;
#530 = VERTEX_POINT ( 'NONE', #443 ) ;
#531 = DIRECTION ( 'NONE',  ( -1.084202172485504434E-16, 0.000000000000000000, -1.000000000000000000 ) ) ;
#532 = CIRCLE ( 'NONE', #804, 0.6499999999999991340 ) ;
#533 = CARTESIAN_POINT ( 'NONE',  ( 0.000000000000000000, 0.000000000000000000, 0.000000000000000000 ) ) ;
#534 = ORIENTED_EDGE ( 'NONE', *, *, #106, .T. ) ;
#535 = DIRECTION ( 'NONE',  ( 0.000000000000000000, -0.000000000000000000, -1.000000000000000000 ) ) ;
#536 = ORIENTED_EDGE ( 'NONE', *, *, #933, .T. ) ;
#537 = CARTESIAN_POINT ( 'NONE',  ( -2.999999999999997780, 5.000000000000000000, -3.732050807568878081 ) ) ;
#538 = AXIS2_PLACEMENT_3D ( 'NONE', #424, #761, #312 ) ;
#539 = FACE_BOUND ( 'NONE', #996, .T. ) ;
#540 = VECTOR ( 'NONE', #707, 1000.000000000000000 ) ;
#541 = ORIENTED_EDGE ( 'NONE', *, *, #564, .T. ) ;
#542 =( NAMED_UNIT ( * ) SI_UNIT ( $, .STERADIAN. ) SOLID_ANGLE_UNIT ( ) );
#543 = EDGE_LOOP ( 'NONE', ( #351, #1120, #682, #966 ) ) ;
#544 = DIRECTION ( 'NONE',  ( 0.000000000000000000, 0.000000000000000000, 1.000000000000000000 ) ) ;
#545 = EDGE_LOOP ( 'NONE', ( #442, #397 ) ) ;
#546 = DIRECTION ( 'NONE',  ( 0.8660254037844382635, 3.755786496842892155E-16, 0.5000000000000006661 ) ) ;
#547 = EDGE_CURVE ( 'NONE', #530, #943, #811, .T. ) ;
#548 = VERTEX_POINT ( 'NONE', #26 ) ;
#549 = LINE ( 'NONE', #626, #575 ) ;
#550 = DIRECTION ( 'NONE',  ( 2.775557561562793668E-17, 1.000000000000000000, -1.222980050563648509E-16 ) ) ;
#551 = VECTOR ( 'NONE', #923, 1000.000000000000114 ) ;
#552 = ORIENTED_EDGE ( 'NONE', *, *, #257, .T. ) ;
#553 = CARTESIAN_POINT ( 'NONE',  ( 2.366025403784440151, 9.000000000000000000, -4.098076211353312459 ) ) ;
#554 = ORIENTED_EDGE ( 'NONE', *, *, #713, .T. ) ;
#555 = DIRECTION ( 'NONE',  ( 0.000000000000000000, 0.000000000000000000, 1.000000000000000000 ) ) ;
#556 = CIRCLE ( 'NONE', #887, 0.6499999999999891420 ) ;
#557 = ORIENTED_EDGE ( 'NONE', *, *, #783, .F. ) ;
#558 = CYLINDRICAL_SURFACE ( 'NONE', #767, 0.6499999999999941380 ) ;
#559 = EDGE_LOOP ( 'NONE', ( #973, #937, #986, #525 ) ) ;
#560 = CARTESIAN_POINT ( 'NONE',  ( -0.3000000000000075939, 9.000000000000000000, 2.620000000049000022 ) ) ;
#561 = FACE_OUTER_BOUND ( 'NONE', #699, .T. ) ;
#562 = EDGE_CURVE ( 'NONE', #145, #1103, #90, .T. ) ;
#563 = CARTESIAN_POINT ( 'NONE',  ( -0.3300000000000076206, 9.000000000000000000, -1.979999999950993184 ) ) ;
#564 = EDGE_CURVE ( 'NONE', #78, #360, #187, .T. ) ;
#565 = CARTESIAN_POINT ( 'NONE',  ( 5.000000000000002665, 5.000000000000000000, -2.577350269189619958 ) ) ;
#566 = ORIENTED_EDGE ( 'NONE', *, *, #826, .F. ) ;
#567 = DIRECTION ( 'NONE',  ( -0.000000000000000000, 1.000000000000000000, -0.000000000000000000 ) ) ;
#568 = DIRECTION ( 'NONE',  ( 0.000000000000000000, 0.000000000000000000, 1.000000000000000000 ) ) ;
#569 = EDGE_CURVE ( 'NONE', #1015, #635, #549, .T. ) ;
#570 = CARTESIAN_POINT ( 'NONE',  ( -0.3300000000000076206, 6.000000000000000000, -1.329999999950994161 ) ) ;
#571 = VERTEX_POINT ( 'NONE', #256 ) ;
#572 = FACE_OUTER_BOUND ( 'NONE', #559, .T. ) ;
#573 = CARTESIAN_POINT ( 'NONE',  ( 6.000000000000000000, 0.000000000000000000, -1.999999999999993561 ) ) ;
#574 = CARTESIAN_POINT ( 'NONE',  ( 3.000000000000000000, 9.000000000000000000, 1.000000000000000000 ) ) ;
#575 = VECTOR ( 'NONE', #96, 999.9999999999998863 ) ;
#576 = LINE ( 'NONE', #825, #190 ) ;
#577 = AXIS2_PLACEMENT_3D ( 'NONE', #412, #1128, #84 ) ;
#578 = ORIENTED_EDGE ( 'NONE', *, *, #21, .T. ) ;
#579 = LINE ( 'NONE', #743, #247 ) ;
#580 = AXIS2_PLACEMENT_3D ( 'NONE', #308, #135, #1002 ) ;
#581 = FACE_BOUND ( 'NONE', #194, .T. ) ;
#582 = ORIENTED_EDGE ( 'NONE', *, *, #155, .F. ) ;
#583 = LINE ( 'NONE', #69, #756 ) ;
#584 = EDGE_CURVE ( 'NONE', #278, #911, #500, .T. ) ;
#585 = VERTEX_POINT ( 'NONE', #1077 ) ;
#586 = CARTESIAN_POINT ( 'NONE',  ( -0.3000000000000075384, 6.000000000000000000, 1.320000000049006417 ) ) ;
#587 = ADVANCED_FACE ( 'NONE', ( #794 ), #429, .F. ) ;
#588 = CARTESIAN_POINT ( 'NONE',  ( 6.000000000000000888, 9.000000000000000000, 1.999999999999997335 ) ) ;
#589 = LINE ( 'NONE', #227, #909 ) ;
#590 = ORIENTED_EDGE ( 'NONE', *, *, #77, .T. ) ;
#591 = CARTESIAN_POINT ( 'NONE',  ( -0.3300000000000075651, 9.000000000000000000, -2.629999999950987544 ) ) ;
#592 = DIRECTION ( 'NONE',  ( -0.8660254037844382635, 0.000000000000000000, -0.5000000000000008882 ) ) ;
#593 = VERTEX_POINT ( 'NONE', #331 ) ;
#594 = LINE ( 'NONE', #64, #62 ) ;
#595 = EDGE_CURVE ( 'NONE', #1049, #593, #105, .T. ) ;
#596 = DIRECTION ( 'NONE',  ( 0.5000000000000008882, 0.000000000000000000, -0.8660254037844382635 ) ) ;
#597 = EDGE_LOOP ( 'NONE', ( #998, #618, #689, #1091, #849, #982, #228, #866 ) ) ;
#598 = PLANE ( 'NONE',  #812 ) ;
#599 = PLANE ( 'NONE',  #1101 ) ;
#600 = ORIENTED_EDGE ( 'NONE', *, *, #945, .T. ) ;
#601 = EDGE_CURVE ( 'NONE', #178, #1087, #983, .T. ) ;
#602 = LINE ( 'NONE', #161, #133 ) ;
#603 = COLOUR_RGB ( '',0.7921568627450980005, 0.8196078431372548767, 0.9333333333333333481 ) ;
#604 = ORIENTED_EDGE ( 'NONE', *, *, #1110, .F. ) ;
#605 = LINE ( 'NONE', #591, #230 ) ;
#606 = ORIENTED_EDGE ( 'NONE', *, *, #652, .T. ) ;
#607 = VERTEX_POINT ( 'NONE', #621 ) ;
#608 = DIRECTION ( 'NONE',  ( 1.000000000000000000, 4.336808689942014778E-16, 0.000000000000000000 ) ) ;
#609 = VECTOR ( 'NONE', #511, 1000.000000000000000 ) ;
#610 = CIRCLE ( 'NONE', #117, 0.6499999999999991340 ) ;
#611 = VERTEX_POINT ( 'NONE', #700 ) ;
#612 = LINE ( 'NONE', #877, #327 ) ;
#613 = EDGE_LOOP ( 'NONE', ( #255, #638, #508, #1073, #269, #822, #22, #1108, #924, #127, #167, #486, #217, #219, #356, #884 ) ) ;
#614 = DIRECTION ( 'NONE',  ( 4.336808689942014778E-16, -1.000000000000000000, -0.000000000000000000 ) ) ;
#615 = EDGE_CURVE ( 'NONE', #330, #207, #177, .T. ) ;
#616 = ADVANCED_FACE ( 'NONE', ( #895 ), #1061, .T. ) ;
#617 = CARTESIAN_POINT ( 'NONE',  ( -6.000000000000000000, 0.000000000000000000, 1.999999999999997335 ) ) ;
#618 = ORIENTED_EDGE ( 'NONE', *, *, #243, .T. ) ;
#619 = DIRECTION ( 'NONE',  ( 0.000000000000000000, -1.000000000000000000, 0.000000000000000000 ) ) ;
#620 = ORIENTED_EDGE ( 'NONE', *, *, #595, .T. ) ;
#621 = CARTESIAN_POINT ( 'NONE',  ( -0.3000000000000075939, 6.000000000000000000, 2.620000000049004463 ) ) ;
#622 = EDGE_CURVE ( 'NONE', #31, #170, #333, .T. ) ;
#623 = LINE ( 'NONE', #979, #66 ) ;
#624 = CARTESIAN_POINT ( 'NONE',  ( 6.000000000000000888, 0.000000000000000000, 1.999999999999997335 ) ) ;
#625 = ORIENTED_EDGE ( 'NONE', *, *, #1136, .T. ) ;
#626 = CARTESIAN_POINT ( 'NONE',  ( -6.000000000000000000, 4.999999999999998224, -1.999999999999996669 ) ) ;
#627 = DIRECTION ( 'NONE',  ( 0.000000000000000000, -0.000000000000000000, 1.000000000000000000 ) ) ;
#628 = ORIENTED_EDGE ( 'NONE', *, *, #629, .T. ) ;
#629 = EDGE_CURVE ( 'NONE', #514, #293, #214, .T. ) ;
#630 = DIRECTION ( 'NONE',  ( 0.000000000000000000, 0.000000000000000000, 1.000000000000000000 ) ) ;
#631 = CARTESIAN_POINT ( 'NONE',  ( -4.000000000000000000, 1.999999999999999112, 8.560260801551845635E-16 ) ) ;
#632 = CARTESIAN_POINT ( 'NONE',  ( 0.000000000000000000, 9.000000000000000000, 0.000000000000000000 ) ) ;
#633 = EDGE_LOOP ( 'NONE', ( #267, #274, #288, #659 ) ) ;
#634 = DIRECTION ( 'NONE',  ( 2.775557561562793668E-17, 1.000000000000000000, -1.222980050563648509E-16 ) ) ;
#635 = VERTEX_POINT ( 'NONE', #537 ) ;
#636 = DIRECTION ( 'NONE',  ( -3.252606517456513302E-16, -0.000000000000000000, -1.000000000000000000 ) ) ;
#637 = AXIS2_PLACEMENT_3D ( 'NONE', #373, #634, #379 ) ;
#638 = ORIENTED_EDGE ( 'NONE', *, *, #417, .T. ) ;
#639 = CARTESIAN_POINT ( 'NONE',  ( -2.535898384862246946, 9.000000000000000000, -3.999999999999999112 ) ) ;
#640 = ORIENTED_EDGE ( 'NONE', *, *, #678, .T. ) ;
#641 = DIRECTION ( 'NONE',  ( 0.000000000000000000, 0.000000000000000000, 1.000000000000000000 ) ) ;
#642 = ADVANCED_FACE ( 'NONE', ( #712 ), #994, .F. ) ;
#643 = EDGE_CURVE ( 'NONE', #607, #655, #1095, .T. ) ;
#644 = LINE ( 'NONE', #744, #928 ) ;
#645 = AXIS2_PLACEMENT_3D ( 'NONE', #1141, #235, #158 ) ;
#646 = VERTEX_POINT ( 'NONE', #116 ) ;
#647 = AXIS2_PLACEMENT_3D ( 'NONE', #144, #596, #947 ) ;
#648 = DIRECTION ( 'NONE',  ( -2.168404344971008868E-16, 1.000000000000000000, 0.000000000000000000 ) ) ;
#649 = AXIS2_PLACEMENT_3D ( 'NONE', #473, #836, #1142 ) ;
#650 = VERTEX_POINT ( 'NONE', #1005 ) ;
#651 = DIRECTION ( 'NONE',  ( 0.000000000000000000, 0.000000000000000000, 1.000000000000000000 ) ) ;
#652 = EDGE_CURVE ( 'NONE', #9, #1049, #280, .T. ) ;
#653 = EDGE_CURVE ( 'NONE', #335, #571, #122, .T. ) ;
#654 = DIRECTION ( 'NONE',  ( 2.775557561562793668E-17, 1.000000000000000000, -1.222980050563648509E-16 ) ) ;
#655 = VERTEX_POINT ( 'NONE', #464 ) ;
#656 = CYLINDRICAL_SURFACE ( 'NONE', #300, 0.6499999999999943601 ) ;
#657 = FACE_OUTER_BOUND ( 'NONE', #676, .T. ) ;
#658 = CARTESIAN_POINT ( 'NONE',  ( -1.449999999999279421, 9.000000000000000000, -0.7699999999510043214 ) ) ;
#659 = ORIENTED_EDGE ( 'NONE', *, *, #912, .F. ) ;
#660 = CARTESIAN_POINT ( 'NONE',  ( -2.999999999999999556, 9.000000000000001776, -3.732050807568877193 ) ) ;
#661 = CARTESIAN_POINT ( 'NONE',  ( 5.000000000000000888, 9.000000000000000000, 1.000000000000000000 ) ) ;
#662 = LINE ( 'NONE', #574, #7 ) ;
#663 = ADVANCED_FACE ( 'NONE', ( #1114 ), #920, .F. ) ;
#664 = ORIENTED_EDGE ( 'NONE', *, *, #652, .F. ) ;
#665 = LINE ( 'NONE', #660, #774 ) ;
#666 = AXIS2_PLACEMENT_3D ( 'NONE', #533, #883, #708 ) ;
#667 = ORIENTED_EDGE ( 'NONE', *, *, #1110, .T. ) ;
#668 = DIRECTION ( 'NONE',  ( -0.000000000000000000, 1.000000000000000000, -0.000000000000000000 ) ) ;
#669 = DIRECTION ( 'NONE',  ( 2.168404344971008621E-16, -1.000000000000000000, -1.251928832280968407E-16 ) ) ;
#670 = PRODUCT_CONTEXT ( 'NONE', #1093, 'mechanical' ) ;
#671 = ORIENTED_EDGE ( 'NONE', *, *, #823, .T. ) ;
#672 = LINE ( 'NONE', #856, #609 ) ;
#673 = ORIENTED_EDGE ( 'NONE', *, *, #653, .T. ) ;
#674 = DIRECTION ( 'NONE',  ( -0.000000000000000000, 1.000000000000000000, -0.000000000000000000 ) ) ;
#675 = DIRECTION ( 'NONE',  ( 0.000000000000000000, 0.000000000000000000, -1.000000000000000000 ) ) ;
#676 = EDGE_LOOP ( 'NONE', ( #423, #248, #706, #949 ) ) ;
#677 = LINE ( 'NONE', #411, #315 ) ;
#678 = EDGE_CURVE ( 'NONE', #914, #798, #1096, .T. ) ;
#679 = AXIS2_PLACEMENT_3D ( 'NONE', #747, #282, #294 ) ;
#680 = FACE_OUTER_BOUND ( 'NONE', #633, .T. ) ;
#681 = CLOSED_SHELL ( 'NONE', ( #20, #383, #169, #824, #512, #91, #995, #140, #797, #663, #642, #769, #587, #1106, #180, #403, #68, #685, #1066, #1081, #480, #990, #684, #805, #262, #1097, #785, #313, #1013, #93, #432, #749, #1008, #200, #885, #1139, #364, #616, #151 ) ) ;
#682 = ORIENTED_EDGE ( 'NONE', *, *, #910, .F. ) ;
#683 = DIRECTION ( 'NONE',  ( -0.000000000000000000, 1.000000000000000000, -0.000000000000000000 ) ) ;
#684 = ADVANCED_FACE ( 'NONE', ( #471 ), #656, .F. ) ;
#685 = ADVANCED_FACE ( 'NONE', ( #43 ), #132, .F. ) ;
#686 = CARTESIAN_POINT ( 'NONE',  ( -6.000000000000000000, 9.000000000000000000, 1.999999999999997335 ) ) ;
#687 = ORIENTED_EDGE ( 'NONE', *, *, #629, .F. ) ;
#688 = FACE_OUTER_BOUND ( 'NONE', #1004, .T. ) ;
#689 = ORIENTED_EDGE ( 'NONE', *, *, #958, .T. ) ;
#690 = DIRECTION ( 'NONE',  ( 0.000000000000000000, 0.000000000000000000, 1.000000000000000000 ) ) ;
#691 = VECTOR ( 'NONE', #35, 1000.000000000000000 ) ;
#692 = VERTEX_POINT ( 'NONE', #905 ) ;
#693 = DIRECTION ( 'NONE',  ( -0.000000000000000000, 1.000000000000000000, -0.000000000000000000 ) ) ;
#694 = CARTESIAN_POINT ( 'NONE',  ( -6.000000000000000888, 0.000000000000000000, -3.999999999999999112 ) ) ;
#695 = VERTEX_POINT ( 'NONE', #828 ) ;
#696 = CYLINDRICAL_SURFACE ( 'NONE', #467, 0.6499999999999941380 ) ;
#697 = EDGE_CURVE ( 'NONE', #935, #145, #381, .T. ) ;
#698 = VECTOR ( 'NONE', #882, 1000.000000000000000 ) ;
#699 = EDGE_LOOP ( 'NONE', ( #1098, #11, #878, #640 ) ) ;
#700 = CARTESIAN_POINT ( 'NONE',  ( -2.999999999999998668, 9.000000000000000000, -3.732050807568877637 ) ) ;
#701 = EDGE_CURVE ( 'NONE', #162, #1057, #179, .T. ) ;
#702 = CARTESIAN_POINT ( 'NONE',  ( 2.535898384862242061, 9.000000000000000000, -3.999999999999999112 ) ) ;
#703 = AXIS2_PLACEMENT_3D ( 'NONE', #1112, #917, #286 ) ;
#704 = EDGE_LOOP ( 'NONE', ( #534, #261, #311, #964 ) ) ;
#705 = CARTESIAN_POINT ( 'NONE',  ( -5.000000000000000000, 9.000000000000000000, 1.000000000000000000 ) ) ;
#706 = ORIENTED_EDGE ( 'NONE', *, *, #782, .T. ) ;
#707 = DIRECTION ( 'NONE',  ( 0.000000000000000000, 0.000000000000000000, -1.000000000000000000 ) ) ;
#708 = DIRECTION ( 'NONE',  ( 0.000000000000000000, -0.000000000000000000, 1.000000000000000000 ) ) ;
#709 = EDGE_LOOP ( 'NONE', ( #319, #271, #42, #625 ) ) ;
#710 = CARTESIAN_POINT ( 'NONE',  ( -0.3300000000000076206, 9.000000000000000000, -1.979999999950993184 ) ) ;
#711 = ORIENTED_EDGE ( 'NONE', *, *, #8, .T. ) ;
#712 = FACE_OUTER_BOUND ( 'NONE', #212, .T. ) ;
#713 = EDGE_CURVE ( 'NONE', #426, #1015, #579, .T. ) ;
#714 = ORIENTED_EDGE ( 'NONE', *, *, #433, .T. ) ;
#715 = DIRECTION ( 'NONE',  ( 0.000000000000000000, 0.000000000000000000, 1.000000000000000000 ) ) ;
#716 = EDGE_LOOP ( 'NONE', ( #838, #730, #345, #956 ) ) ;
#717 = LINE ( 'NONE', #879, #263 ) ;
#718 = VECTOR ( 'NONE', #954, 1000.000000000000000 ) ;
#719 = AXIS2_PLACEMENT_3D ( 'NONE', #446, #803, #352 ) ;
#720 = FACE_OUTER_BOUND ( 'NONE', #613, .T. ) ;
#721 = AXIS2_PLACEMENT_3D ( 'NONE', #314, #675, #1038 ) ;
#722 = DIRECTION ( 'NONE',  ( -0.000000000000000000, 1.000000000000000000, -0.000000000000000000 ) ) ;
#723 = EDGE_CURVE ( 'NONE', #635, #611, #665, .T. ) ;
#724 = PLANE ( 'NONE',  #831 ) ;
#725 = EDGE_LOOP ( 'NONE', ( #463, #197 ) ) ;
#726 = DIRECTION ( 'NONE',  ( -0.8660254037844382635, -0.000000000000000000, 0.5000000000000007772 ) ) ;
#727 = DIRECTION ( 'NONE',  ( -0.000000000000000000, 1.000000000000000000, -0.000000000000000000 ) ) ;
#728 = FACE_OUTER_BOUND ( 'NONE', #758, .T. ) ;
#729 = CARTESIAN_POINT ( 'NONE',  ( 2.535898384862242061, 0.000000000000000000, -3.999999999999999112 ) ) ;
#730 = ORIENTED_EDGE ( 'NONE', *, *, #6, .F. ) ;
#731 = CARTESIAN_POINT ( 'NONE',  ( -0.3000000000000075939, 9.000000000000000000, 1.970000000049005440 ) ) ;
#732 = DIRECTION ( 'NONE',  ( 1.000000000000000000, 4.336808689942012806E-16, 0.000000000000000000 ) ) ;
#733 = AXIS2_PLACEMENT_3D ( 'NONE', #186, #242, #98 ) ;
#734 = CARTESIAN_POINT ( 'NONE',  ( 4.000000000000000000, 1.999999999999999112, -0.6499999999999990230 ) ) ;
#735 = LINE ( 'NONE', #206, #1037 ) ;
#736 = ORIENTED_EDGE ( 'NONE', *, *, #595, .F. ) ;
#737 = DIRECTION ( 'NONE',  ( -0.000000000000000000, 1.000000000000000000, 0.000000000000000000 ) ) ;
#738 = DIRECTION ( 'NONE',  ( 2.775557561562793668E-17, 1.000000000000000000, -1.222980050563648509E-16 ) ) ;
#739 = CIRCLE ( 'NONE', #355, 0.6499999999999891420 ) ;
#740 = VECTOR ( 'NONE', #260, 1000.000000000000000 ) ;
#741 = DIRECTION ( 'NONE',  ( -0.8660254037844382635, 0.000000000000000000, -0.5000000000000006661 ) ) ;
#742 = ORIENTED_EDGE ( 'NONE', *, *, #14, .F. ) ;
#743 = CARTESIAN_POINT ( 'NONE',  ( -4.999999999999999112, 4.999999999999999112, 1.000000000000000000 ) ) ;
#744 = CARTESIAN_POINT ( 'NONE',  ( -1.449999999999279421, 9.000000000000000000, -1.419999999950998459 ) ) ;
#745 = LINE ( 'NONE', #1086, #691 ) ;
#746 = ORIENTED_EDGE ( 'NONE', *, *, #860, .F. ) ;
#747 = CARTESIAN_POINT ( 'NONE',  ( 4.000000000000000000, 1.999999999999999112, 8.561459906339234470E-16 ) ) ;
#748 = CARTESIAN_POINT ( 'NONE',  ( -6.000000000000000888, 0.000000000000000000, -3.999999999999999112 ) ) ;
#749 = ADVANCED_FACE ( 'NONE', ( #572, #1011 ), #289, .T. ) ;
#750 = DIRECTION ( 'NONE',  ( -0.000000000000000000, 1.000000000000000000, -0.000000000000000000 ) ) ;
#751 = EDGE_CURVE ( 'NONE', #78, #1030, #208, .T. ) ;
#752 =( GEOMETRIC_REPRESENTATION_CONTEXT ( 3 ) GLOBAL_UNCERTAINTY_ASSIGNED_CONTEXT ( ( #1019 ) ) GLOBAL_UNIT_ASSIGNED_CONTEXT ( ( #103, #264, #542 ) ) REPRESENTATION_CONTEXT ( 'NONE', 'WORKASPACE' ) );
#753 = ORIENTED_EDGE ( 'NONE', *, *, #73, .T. ) ;
#754 = DIRECTION ( 'NONE',  ( -0.000000000000000000, 1.000000000000000000, -0.000000000000000000 ) ) ;
#755 = DIRECTION ( 'NONE',  ( 1.000000000000000000, 0.000000000000000000, 0.000000000000000000 ) ) ;
#756 = VECTOR ( 'NONE', #76, 1000.000000000000000 ) ;
#757 = EDGE_CURVE ( 'NONE', #60, #695, #138, .T. ) ;
#758 = EDGE_LOOP ( 'NONE', ( #664, #18, #1064, #736 ) ) ;
#759 = FACE_OUTER_BOUND ( 'NONE', #461, .T. ) ;
#760 = VERTEX_POINT ( 'NONE', #38 ) ;
#761 = DIRECTION ( 'NONE',  ( 0.000000000000000000, -1.000000000000000000, 0.000000000000000000 ) ) ;
#762 = EDGE_CURVE ( 'NONE', #976, #1087, #375, .T. ) ;
#763 = LINE ( 'NONE', #222, #24 ) ;
#764 = EDGE_CURVE ( 'NONE', #104, #192, #196, .T. ) ;
#765 = ORIENTED_EDGE ( 'NONE', *, *, #365, .T. ) ;
#766 = PLANE ( 'NONE',  #538 ) ;
#767 = AXIS2_PLACEMENT_3D ( 'NONE', #658, #291, #1014 ) ;
#768 = LINE ( 'NONE', #686, #1131 ) ;
#769 = ADVANCED_FACE ( 'NONE', ( #299 ), #942, .F. ) ;
#770 = ORIENTED_EDGE ( 'NONE', *, *, #54, .T. ) ;
#771 = FACE_OUTER_BOUND ( 'NONE', #304, .T. ) ;
#772 = AXIS2_PLACEMENT_3D ( 'NONE', #3, #988, #527 ) ;
#773 = CARTESIAN_POINT ( 'NONE',  ( -0.3000000000000075939, 9.000000000000000000, 1.970000000049005440 ) ) ;
#774 = VECTOR ( 'NONE', #1104, 1000.000000000000000 ) ;
#775 = AXIS2_PLACEMENT_3D ( 'NONE', #1012, #384, #33 ) ;
#776 = ORIENTED_EDGE ( 'NONE', *, *, #6, .T. ) ;
#777 = DIRECTION ( 'NONE',  ( 0.000000000000000000, 0.000000000000000000, 1.000000000000000000 ) ) ;
#778 = ORIENTED_EDGE ( 'NONE', *, *, #59, .F. ) ;
#779 = DIRECTION ( 'NONE',  ( 0.000000000000000000, -1.000000000000000000, 0.000000000000000000 ) ) ;
#780 = ORIENTED_EDGE ( 'NONE', *, *, #226, .F. ) ;
#781 = CARTESIAN_POINT ( 'NONE',  ( 2.535898384862242061, 9.000000000000000000, -3.999999999999999112 ) ) ;
#782 = EDGE_CURVE ( 'NONE', #145, #611, #763, .T. ) ;
#783 = EDGE_CURVE ( 'NONE', #655, #571, #1001, .T. ) ;
#784 = EDGE_LOOP ( 'NONE', ( #1033, #566, #620, #236 ) ) ;
#785 = ADVANCED_FACE ( 'NONE', ( #1031 ), #404, .F. ) ;
#786 = CARTESIAN_POINT ( 'NONE',  ( -0.3000000000000083711, 6.000000000000000000, 1.970000000049005440 ) ) ;
#787 = CIRCLE ( 'NONE', #637, 0.6500000000000000222 ) ;
#788 = ORIENTED_EDGE ( 'NONE', *, *, #339, .F. ) ;
#789 = DIRECTION ( 'NONE',  ( 0.000000000000000000, 0.000000000000000000, 1.000000000000000000 ) ) ;
#790 = FACE_BOUND ( 'NONE', #119, .T. ) ;
#791 = VERTEX_POINT ( 'NONE', #492 ) ;
#792 = FILL_AREA_STYLE ('',( #809 ) ) ;
#793 = EDGE_LOOP ( 'NONE', ( #1143, #400 ) ) ;
#794 = FACE_OUTER_BOUND ( 'NONE', #709, .T. ) ;
#795 = DIRECTION ( 'NONE',  ( 1.084202172485504434E-16, 0.000000000000000000, 1.000000000000000000 ) ) ;
#796 = LINE ( 'NONE', #881, #224 ) ;
#797 = ADVANCED_FACE ( 'NONE', ( #422 ), #1026, .F. ) ;
#798 = VERTEX_POINT ( 'NONE', #1042 ) ;
#799 = CARTESIAN_POINT ( 'NONE',  ( -4.000000000000000000, 1.999999999999999112, 0.6500000000000007994 ) ) ;
#800 = EDGE_CURVE ( 'NONE', #153, #60, #768, .T. ) ;
#801 = ORIENTED_EDGE ( 'NONE', *, *, #45, .T. ) ;
#802 = SURFACE_STYLE_USAGE ( .BOTH. , #449 ) ;
#803 = DIRECTION ( 'NONE',  ( 2.775557561562793668E-17, 1.000000000000000000, -1.222980050563648509E-16 ) ) ;
#804 = AXIS2_PLACEMENT_3D ( 'NONE', #1058, #975, #690 ) ;
#805 = ADVANCED_FACE ( 'NONE', ( #759 ), #1124, .F. ) ;
#806 = CARTESIAN_POINT ( 'NONE',  ( 4.000000000000000000, 1.999999999999999112, 8.561459906339234470E-16 ) ) ;
#807 = UNCERTAINTY_MEASURE_WITH_UNIT (LENGTH_MEASURE( 1.000000000000000082E-05 ), #489, 'distance_accuracy_value', 'NONE');
#808 = ORIENTED_EDGE ( 'NONE', *, *, #338, .T. ) ;
#809 = FILL_AREA_STYLE_COLOUR ( '', #603 ) ;
#810 = EDGE_LOOP ( 'NONE', ( #961, #316, #74, #968 ) ) ;
#811 = LINE ( 'NONE', #346, #414 ) ;
#812 = AXIS2_PLACEMENT_3D ( 'NONE', #1130, #229, #944 ) ;
#813 = VECTOR ( 'NONE', #965, 1000.000000000000000 ) ;
#814 = AXIS2_PLACEMENT_3D ( 'NONE', #925, #368, #844 ) ;
#815 = FACE_OUTER_BOUND ( 'NONE', #810, .T. ) ;
#816 = DIRECTION ( 'NONE',  ( 0.000000000000000000, -1.000000000000000000, 0.000000000000000000 ) ) ;
#817 = AXIS2_PLACEMENT_3D ( 'NONE', #806, #550, #15 ) ;
#818 = DIRECTION ( 'NONE',  ( 0.000000000000000000, -1.000000000000000000, 0.000000000000000000 ) ) ;
#819 = EDGE_LOOP ( 'NONE', ( #919, #889, #526, #428 ) ) ;
#820 = DIRECTION ( 'NONE',  ( -1.000000000000000000, -4.336808689942014778E-16, 0.000000000000000000 ) ) ;
#821 = CARTESIAN_POINT ( 'NONE',  ( -4.000000000000000000, 4.999999999999999112, 0.6500000000000004663 ) ) ;
#822 = ORIENTED_EDGE ( 'NONE', *, *, #59, .T. ) ;
#823 = EDGE_CURVE ( 'NONE', #514, #170, #602, .T. ) ;
#824 = ADVANCED_FACE ( 'NONE', ( #957 ), #871, .F. ) ;
#825 = CARTESIAN_POINT ( 'NONE',  ( 5.000000000000000888, 9.000000000000001776, -2.577350269189620402 ) ) ;
#826 = EDGE_CURVE ( 'NONE', #1049, #9, #455, .T. ) ;
#827 = ORIENTED_EDGE ( 'NONE', *, *, #972, .T. ) ;
#828 = CARTESIAN_POINT ( 'NONE',  ( -2.535898384862247390, 9.000000000000000000, 4.000000000000000888 ) ) ;
#829 = PRODUCT_DEFINITION_FORMATION_WITH_SPECIFIED_SOURCE ( 'ไป', '', #1035, .NOT_KNOWN. ) ;
#830 = CARTESIAN_POINT ( 'NONE',  ( -1.449999999999279421, 6.000000000000000000, -0.7699999999510043214 ) ) ;
#831 = AXIS2_PLACEMENT_3D ( 'NONE', #126, #1082, #818 ) ;
#832 = PLANE ( 'NONE',  #1089 ) ;
#833 = ORIENTED_EDGE ( 'NONE', *, *, #980, .T. ) ;
#834 = DIRECTION ( 'NONE',  ( -0.000000000000000000, 1.000000000000000000, -0.000000000000000000 ) ) ;
#835 = AXIS2_PLACEMENT_3D ( 'NONE', #631, #13, #1084 ) ;
#836 = DIRECTION ( 'NONE',  ( -0.000000000000000000, 1.000000000000000000, -0.000000000000000000 ) ) ;
#837 = FACE_OUTER_BOUND ( 'NONE', #880, .T. ) ;
#838 = ORIENTED_EDGE ( 'NONE', *, *, #390, .F. ) ;
#839 = DIRECTION ( 'NONE',  ( 0.000000000000000000, 0.000000000000000000, -1.000000000000000000 ) ) ;
#840 = FACE_OUTER_BOUND ( 'NONE', #160, .T. ) ;
#841 = LINE ( 'NONE', #221, #303 ) ;
#842 = DIRECTION ( 'NONE',  ( -1.084202172485504434E-16, 1.000000000000000000, 0.000000000000000000 ) ) ;
#843 = EDGE_LOOP ( 'NONE', ( #55, #833 ) ) ;
#844 = DIRECTION ( 'NONE',  ( 0.000000000000000000, -1.000000000000000000, 0.000000000000000000 ) ) ;
#845 = ORIENTED_EDGE ( 'NONE', *, *, #505, .T. ) ;
#846 = CARTESIAN_POINT ( 'NONE',  ( 0.9999999999999915623, 9.000000000000000000, 4.899206040853698596E-11 ) ) ;
#847 = STYLED_ITEM ( 'NONE', ( #109 ), #962 ) ;
#848 =( NAMED_UNIT ( * ) SI_UNIT ( $, .STERADIAN. ) SOLID_ANGLE_UNIT ( ) );
#849 = ORIENTED_EDGE ( 'NONE', *, *, #495, .F. ) ;
#850 = LINE ( 'NONE', #233, #334 ) ;
#851 = DIRECTION ( 'NONE',  ( -0.000000000000000000, 1.000000000000000000, -0.000000000000000000 ) ) ;
#852 = VECTOR ( 'NONE', #859, 1000.000000000000000 ) ;
#853 = EDGE_CURVE ( 'NONE', #87, #692, #672, .T. ) ;
#854 = AXIS2_PLACEMENT_3D ( 'NONE', #507, #218, #1121 ) ;
#855 = AXIS2_PLACEMENT_3D ( 'NONE', #343, #258, #1069 ) ;
#856 = CARTESIAN_POINT ( 'NONE',  ( 5.999999999999999112, 9.000000000000000000, -3.999999999999999112 ) ) ;
#857 = VECTOR ( 'NONE', #1127, 1000.000000000000000 ) ;
#858 = ORIENTED_EDGE ( 'NONE', *, *, #1080, .T. ) ;
#859 = DIRECTION ( 'NONE',  ( -0.000000000000000000, 1.000000000000000000, -0.000000000000000000 ) ) ;
#860 = EDGE_CURVE ( 'NONE', #89, #448, #583, .T. ) ;
#861 = CARTESIAN_POINT ( 'NONE',  ( -1.450000000000007505, 9.000000000000001776, 0.1000000000490174762 ) ) ;
#862 = ORIENTED_EDGE ( 'NONE', *, *, #347, .F. ) ;
#863 = FACE_OUTER_BOUND ( 'NONE', #1094, .T. ) ;
#864 = AXIS2_PLACEMENT_3D ( 'NONE', #287, #654, #1009 ) ;
#865 = DIRECTION ( 'NONE',  ( 0.000000000000000000, 0.000000000000000000, 1.000000000000000000 ) ) ;
#866 = ORIENTED_EDGE ( 'NONE', *, *, #469, .F. ) ;
#867 = CARTESIAN_POINT ( 'NONE',  ( -1.450000000000007505, 9.000000000000000000, 0.7500000000490065766 ) ) ;
#868 = ORIENTED_EDGE ( 'NONE', *, *, #433, .F. ) ;
#869 = VECTOR ( 'NONE', #39, 1000.000000000000000 ) ;
#870 = AXIS2_PLACEMENT_3D ( 'NONE', #969, #171, #531 ) ;
#871 = CYLINDRICAL_SURFACE ( 'NONE', #872, 0.6499999999999943601 ) ;
#872 = AXIS2_PLACEMENT_3D ( 'NONE', #773, #156, #865 ) ;
#873 = EDGE_LOOP ( 'NONE', ( #582, #687, #671, #298 ) ) ;
#874 = DIRECTION ( 'NONE',  ( -0.8660254037844382635, 0.000000000000000000, -0.5000000000000006661 ) ) ;
#875 = EDGE_CURVE ( 'NONE', #650, #876, #1133, .T. ) ;
#876 = VERTEX_POINT ( 'NONE', #142 ) ;
#877 = CARTESIAN_POINT ( 'NONE',  ( -1.449999999999279421, 9.000000000000000000, -0.1199999999510102111 ) ) ;
#878 = ORIENTED_EDGE ( 'NONE', *, *, #970, .T. ) ;
#879 = CARTESIAN_POINT ( 'NONE',  ( 6.000000000000000888, 9.000000000000000000, 1.999999999999997335 ) ) ;
#880 = EDGE_LOOP ( 'NONE', ( #328, #1083, #281, #185 ) ) ;
#881 = CARTESIAN_POINT ( 'NONE',  ( 2.535898384862243393, 4.999999999999999112, -3.999999999999998224 ) ) ;
#882 = DIRECTION ( 'NONE',  ( 2.775557561562793668E-17, 1.000000000000000000, -1.222980050563648509E-16 ) ) ;
#883 = DIRECTION ( 'NONE',  ( 0.000000000000000000, 1.000000000000000000, 0.000000000000000000 ) ) ;
#884 = ORIENTED_EDGE ( 'NONE', *, *, #782, .F. ) ;
#885 = ADVANCED_FACE ( 'NONE', ( #680 ), #398, .T. ) ;
#886 = DIRECTION ( 'NONE',  ( -0.000000000000000000, 1.000000000000000000, -0.000000000000000000 ) ) ;
#887 = AXIS2_PLACEMENT_3D ( 'NONE', #503, #674, #777 ) ;
#888 = AXIS2_PLACEMENT_3D ( 'NONE', #1088, #56, #51 ) ;
#889 = ORIENTED_EDGE ( 'NONE', *, *, #365, .F. ) ;
#890 = CARTESIAN_POINT ( 'NONE',  ( -5.000000000000000000, 9.000000000000000000, 1.000000000000000000 ) ) ;
#891 = AXIS2_PLACEMENT_3D ( 'NONE', #1099, #472, #1006 ) ;
#892 = CYLINDRICAL_SURFACE ( 'NONE', #855, 0.6499999999999999112 ) ;
#893 = DIRECTION ( 'NONE',  ( 0.000000000000000000, 0.000000000000000000, 1.000000000000000000 ) ) ;
#894 = EDGE_CURVE ( 'NONE', #991, #798, #850, .T. ) ;
#895 = FACE_OUTER_BOUND ( 'NONE', #176, .T. ) ;
#896 = ORIENTED_EDGE ( 'NONE', *, *, #323, .T. ) ;
#897 = CARTESIAN_POINT ( 'NONE',  ( 0.9999999999999915623, 9.000000000000001776, 0.6500000000489811747 ) ) ;
#898 = ORIENTED_EDGE ( 'NONE', *, *, #762, .F. ) ;
#899 = FACE_OUTER_BOUND ( 'NONE', #450, .T. ) ;
#900 = AXIS2_PLACEMENT_3D ( 'NONE', #350, #344, #715 ) ;
#901 = CARTESIAN_POINT ( 'NONE',  ( -4.000000000000000000, 1.999999999999999112, -0.6499999999999991340 ) ) ;
#902 = LINE ( 'NONE', #290, #419 ) ;
#903 = DIRECTION ( 'NONE',  ( 0.000000000000000000, 1.000000000000000000, 0.000000000000000000 ) ) ;
#904 = ORIENTED_EDGE ( 'NONE', *, *, #323, .F. ) ;
#905 = CARTESIAN_POINT ( 'NONE',  ( 6.000000000000000000, 9.000000000000000000, -1.999999999999993561 ) ) ;
#906 = AXIS2_PLACEMENT_3D ( 'NONE', #830, #668, #295 ) ;
#907 = VECTOR ( 'NONE', #636, 1000.000000000000000 ) ;
#908 = DIRECTION ( 'NONE',  ( -0.000000000000000000, 1.000000000000000000, -0.000000000000000000 ) ) ;
#909 = VECTOR ( 'NONE', #592, 999.9999999999998863 ) ;
#910 = EDGE_CURVE ( 'NONE', #650, #153, #589, .T. ) ;
#911 = VERTEX_POINT ( 'NONE', #861 ) ;
#912 = EDGE_CURVE ( 'NONE', #1103, #426, #72, .T. ) ;
#913 = CARTESIAN_POINT ( 'NONE',  ( 4.000000000000000000, 1.999999999999999112, 0.6500000000000006883 ) ) ;
#914 = VERTEX_POINT ( 'NONE', #897 ) ;
#915 = CARTESIAN_POINT ( 'NONE',  ( -1.449999999999279421, 6.000000000000000000, -0.7699999999510043214 ) ) ;
#916 = CARTESIAN_POINT ( 'NONE',  ( 3.000000000000000444, 4.999999999999999112, 1.000000000000000000 ) ) ;
#917 = DIRECTION ( 'NONE',  ( 4.336808689942012806E-16, -1.000000000000000000, -0.000000000000000000 ) ) ;
#918 = FACE_OUTER_BOUND ( 'NONE', #819, .T. ) ;
#919 = ORIENTED_EDGE ( 'NONE', *, *, #370, .F. ) ;
#920 = PLANE ( 'NONE',  #814 ) ;
#921 = LINE ( 'NONE', #748, #285 ) ;
#922 = EDGE_CURVE ( 'NONE', #1137, #991, #501, .T. ) ;
#923 = DIRECTION ( 'NONE',  ( 0.8660254037844382635, -0.000000000000000000, 0.5000000000000006661 ) ) ;
#924 = ORIENTED_EDGE ( 'NONE', *, *, #495, .T. ) ;
#925 = CARTESIAN_POINT ( 'NONE',  ( 2.535898384862242061, 9.000000000000000000, -3.999999999999999112 ) ) ;
#926 = CARTESIAN_POINT ( 'NONE',  ( 4.000000000000000000, 4.999999999999999112, 4.892519754648287465E-16 ) ) ;
#927 = DIRECTION ( 'NONE',  ( 1.084202172485504434E-16, -1.000000000000000000, 0.000000000000000000 ) ) ;
#928 = VECTOR ( 'NONE', #1105, 1000.000000000000000 ) ;
#929 = PLANE ( 'NONE',  #409 ) ;
#930 = APPLICATION_CONTEXT ( 'automotive_design' ) ;
#931 = ORIENTED_EDGE ( 'NONE', *, *, #273, .T. ) ;
#932 = DIRECTION ( 'NONE',  ( -1.000000000000000000, -0.000000000000000000, -0.000000000000000000 ) ) ;
#933 = EDGE_CURVE ( 'NONE', #517, #585, #292, .T. ) ;
#934 = LINE ( 'NONE', #916, #1078 ) ;
#935 = VERTEX_POINT ( 'NONE', #17 ) ;
#936 = CARTESIAN_POINT ( 'NONE',  ( -6.000000000000000000, 0.000000000000000000, 4.000000000000000888 ) ) ;
#937 = ORIENTED_EDGE ( 'NONE', *, *, #431, .T. ) ;
#938 = FACE_OUTER_BOUND ( 'NONE', #873, .T. ) ;
#939 = AXIS2_PLACEMENT_3D ( 'NONE', #53, #297, #1119 ) ;
#940 = EDGE_CURVE ( 'NONE', #760, #278, #1070, .T. ) ;
#941 = SHAPE_DEFINITION_REPRESENTATION ( #1052, #506 ) ;
#942 = PLANE ( 'NONE',  #577 ) ;
#943 = VERTEX_POINT ( 'NONE', #23 ) ;
#944 = DIRECTION ( 'NONE',  ( 1.000000000000000000, 0.000000000000000000, 0.000000000000000000 ) ) ;
#945 = EDGE_CURVE ( 'NONE', #991, #1137, #532, .T. ) ;
#946 = VECTOR ( 'NONE', #999, 999.9999999999998863 ) ;
#947 = DIRECTION ( 'NONE',  ( 0.000000000000000000, -1.000000000000000000, 0.000000000000000000 ) ) ;
#948 = VECTOR ( 'NONE', #755, 1000.000000000000000 ) ;
#949 = ORIENTED_EDGE ( 'NONE', *, *, #723, .F. ) ;
#950 = CARTESIAN_POINT ( 'NONE',  ( -4.000000000000000000, 1.999999999999999112, 8.560260801551845635E-16 ) ) ;
#951 = FACE_BOUND ( 'NONE', #491, .T. ) ;
#952 = CARTESIAN_POINT ( 'NONE',  ( 0.9999999999999908962, 6.000000000000000000, 4.899206040853698596E-11 ) ) ;
#953 = ORIENTED_EDGE ( 'NONE', *, *, #701, .F. ) ;
#954 = DIRECTION ( 'NONE',  ( 0.000000000000000000, -1.000000000000000000, 0.000000000000000000 ) ) ;
#955 = CARTESIAN_POINT ( 'NONE',  ( 5.000000000000000888, 9.000000000000000000, 1.000000000000000000 ) ) ;
#956 = ORIENTED_EDGE ( 'NONE', *, *, #764, .T. ) ;
#957 = FACE_OUTER_BOUND ( 'NONE', #110, .T. ) ;
#958 = EDGE_CURVE ( 'NONE', #448, #1071, #796, .T. ) ;
#959 = ORIENTED_EDGE ( 'NONE', *, *, #382, .F. ) ;
#960 = DIRECTION ( 'NONE',  ( 2.775557561562793668E-17, 1.000000000000000000, -1.222980050563648509E-16 ) ) ;
#961 = ORIENTED_EDGE ( 'NONE', *, *, #945, .F. ) ;
#962 = MANIFOLD_SOLID_BREP ( '\X2\52079664\X0\-\X2\62c94f38\X0\2', #681 ) ;
#963 = VECTOR ( 'NONE', #275, 1000.000000000000000 ) ;
#964 = ORIENTED_EDGE ( 'NONE', *, *, #469, .T. ) ;
#965 = DIRECTION ( 'NONE',  ( 0.000000000000000000, 1.000000000000000000, 0.000000000000000000 ) ) ;
#966 = ORIENTED_EDGE ( 'NONE', *, *, #1080, .F. ) ;
#967 = FACE_OUTER_BOUND ( 'NONE', #85, .T. ) ;
#968 = ORIENTED_EDGE ( 'NONE', *, *, #970, .F. ) ;
#969 = CARTESIAN_POINT ( 'NONE',  ( -6.000000000000000888, 9.000000000000000000, -3.999999999999999112 ) ) ;
#970 = EDGE_CURVE ( 'NONE', #1137, #914, #440, .T. ) ;
#971 = FACE_OUTER_BOUND ( 'NONE', #1129, .T. ) ;
#972 = EDGE_CURVE ( 'NONE', #1057, #585, #612, .T. ) ;
#973 = ORIENTED_EDGE ( 'NONE', *, *, #713, .F. ) ;
#974 = AXIS2_PLACEMENT_3D ( 'NONE', #1055, #886, #893 ) ;
#975 = DIRECTION ( 'NONE',  ( -0.000000000000000000, 1.000000000000000000, -0.000000000000000000 ) ) ;
#976 = VERTEX_POINT ( 'NONE', #175 ) ;
#977 = CARTESIAN_POINT ( 'NONE',  ( 5.999999999999999112, 9.000000000000000000, -3.999999999999999112 ) ) ;
#978 = CARTESIAN_POINT ( 'NONE',  ( -1.450000000000007505, 6.000000000000000000, 0.7500000000490065766 ) ) ;
#979 = CARTESIAN_POINT ( 'NONE',  ( 5.000000000000002665, 5.000000000000000000, 1.000000000000000000 ) ) ;
#980 = EDGE_CURVE ( 'NONE', #2, #760, #240, .T. ) ;
#981 = AXIS2_PLACEMENT_3D ( 'NONE', #152, #324, #305 ) ;
#982 = ORIENTED_EDGE ( 'NONE', *, *, #1136, .F. ) ;
#983 = LINE ( 'NONE', #265, #1018 ) ;
#984 = LINE ( 'NONE', #901, #249 ) ;
#985 = CIRCLE ( 'NONE', #420, 0.6499999999999891420 ) ;
#986 = ORIENTED_EDGE ( 'NONE', *, *, #1046, .T. ) ;
#987 = DIRECTION ( 'NONE',  ( -0.8660254037844380415, -0.000000000000000000, 0.5000000000000009992 ) ) ;
#988 = DIRECTION ( 'NONE',  ( -0.000000000000000000, 1.000000000000000000, -0.000000000000000000 ) ) ;
#989 = CARTESIAN_POINT ( 'NONE',  ( -2.999999999999999556, 9.000000000000000000, 1.000000000000000000 ) ) ;
#990 = ADVANCED_FACE ( 'NONE', ( #427 ), #254, .F. ) ;
#991 = VERTEX_POINT ( 'NONE', #12 ) ;
#992 = CARTESIAN_POINT ( 'NONE',  ( -2.535898384862246502, 9.000000000000000000, 4.000000000000000888 ) ) ;
#993 = EDGE_LOOP ( 'NONE', ( #325, #301 ) ) ;
#994 = PLANE ( 'NONE',  #870 ) ;
#995 = ADVANCED_FACE ( 'NONE', ( #329 ), #696, .F. ) ;
#996 = EDGE_LOOP ( 'NONE', ( #16, #458 ) ) ;
#997 = DIRECTION ( 'NONE',  ( 0.000000000000000000, 0.000000000000000000, 1.000000000000000000 ) ) ;
#998 = ORIENTED_EDGE ( 'NONE', *, *, #1068, .F. ) ;
#999 = DIRECTION ( 'NONE',  ( 0.8660254037844382635, -0.000000000000000000, 0.5000000000000008882 ) ) ;
#1000 = CARTESIAN_POINT ( 'NONE',  ( -1.450000000000007505, 9.000000000000001776, 1.400000000048995830 ) ) ;
#1001 = CIRCLE ( 'NONE', #981, 0.6499999999999891420 ) ;
#1002 = DIRECTION ( 'NONE',  ( -1.000000000000000000, 0.000000000000000000, 0.000000000000000000 ) ) ;
#1003 = DIRECTION ( 'NONE',  ( 1.000000000000000000, 1.084202172485504434E-16, 0.000000000000000000 ) ) ;
#1004 = EDGE_LOOP ( 'NONE', ( #776, #845 ) ) ;
#1005 = CARTESIAN_POINT ( 'NONE',  ( -2.535898384862247390, 0.000000000000000000, 4.000000000000000888 ) ) ;
#1006 = DIRECTION ( 'NONE',  ( 4.336808689942018722E-16, -1.000000000000000000, 0.000000000000000000 ) ) ;
#1007 = EDGE_CURVE ( 'NONE', #330, #876, #259, .T. ) ;
#1008 = ADVANCED_FACE ( 'NONE', ( #967 ), #529, .T. ) ;
#1009 = DIRECTION ( 'NONE',  ( 0.000000000000000000, 1.222980050563648509E-16, 1.000000000000000000 ) ) ;
#1010 = ORIENTED_EDGE ( 'NONE', *, *, #547, .F. ) ;
#1011 = FACE_BOUND ( 'NONE', #793, .T. ) ;
#1012 = CARTESIAN_POINT ( 'NONE',  ( -0.3000000000000075939, 6.000000000000000000, 1.970000000049005440 ) ) ;
#1013 = ADVANCED_FACE ( 'NONE', ( #837 ), #386, .T. ) ;
#1014 = DIRECTION ( 'NONE',  ( 0.000000000000000000, 0.000000000000000000, 1.000000000000000000 ) ) ;
#1015 = VERTEX_POINT ( 'NONE', #366 ) ;
#1016 = CARTESIAN_POINT ( 'NONE',  ( 3.000000000000000000, 9.000000000000000000, 1.000000000000000000 ) ) ;
#1017 = DIRECTION ( 'NONE',  ( -4.336808689942018722E-16, 1.000000000000000000, -0.000000000000000000 ) ) ;
#1018 = VECTOR ( 'NONE', #183, 1000.000000000000000 ) ;
#1019 = UNCERTAINTY_MEASURE_WITH_UNIT (LENGTH_MEASURE( 1.000000000000000082E-05 ), #103, 'distance_accuracy_value', 'NONE');
#1020 = CARTESIAN_POINT ( 'NONE',  ( 3.000000000000000444, 4.999999999999999112, 1.000000000000000000 ) ) ;
#1021 = VECTOR ( 'NONE', #932, 1000.000000000000000 ) ;
#1022 = AXIS2_PLACEMENT_3D ( 'NONE', #563, #1029, #40 ) ;
#1023 = APPLICATION_PROTOCOL_DEFINITION ( 'draft international standard', 'automotive_design', 1998, #1093 ) ;
#1024 = CIRCLE ( 'NONE', #906, 0.6499999999999991340 ) ;
#1025 = ORIENTED_EDGE ( 'NONE', *, *, #73, .F. ) ;
#1026 = PLANE ( 'NONE',  #477 ) ;
#1027 = ORIENTED_EDGE ( 'NONE', *, *, #823, .F. ) ;
#1028 = CARTESIAN_POINT ( 'NONE',  ( 4.000000000000000000, 1.999999999999999112, -0.6499999999999990230 ) ) ;
#1029 = DIRECTION ( 'NONE',  ( -0.000000000000000000, 1.000000000000000000, -0.000000000000000000 ) ) ;
#1030 = VERTEX_POINT ( 'NONE', #358 ) ;
#1031 = FACE_OUTER_BOUND ( 'NONE', #543, .T. ) ;
#1032 = EDGE_CURVE ( 'NONE', #548, #207, #130, .T. ) ;
#1033 = ORIENTED_EDGE ( 'NONE', *, *, #342, .F. ) ;
#1034 = DIRECTION ( 'NONE',  ( 0.000000000000000000, 0.000000000000000000, 1.000000000000000000 ) ) ;
#1035 = PRODUCT ( 'InstallUtilBolck', 'InstallUtilBolck', '', ( #670 ) ) ;
#1036 = FACE_OUTER_BOUND ( 'NONE', #283, .T. ) ;
#1037 = VECTOR ( 'NONE', #903, 1000.000000000000000 ) ;
#1038 = DIRECTION ( 'NONE',  ( -1.000000000000000000, 0.000000000000000000, -0.000000000000000000 ) ) ;
#1039 = ORIENTED_EDGE ( 'NONE', *, *, #347, .T. ) ;
#1040 = CARTESIAN_POINT ( 'NONE',  ( -4.999999999999999112, 4.999999999999999112, 1.000000000000000000 ) ) ;
#1041 = AXIS2_PLACEMENT_3D ( 'NONE', #376, #738, #1034 ) ;
#1042 = CARTESIAN_POINT ( 'NONE',  ( 0.9999999999999915623, 9.000000000000001776, -0.6499999999509971094 ) ) ;
#1043 = AXIS2_PLACEMENT_3D ( 'NONE', #978, #908, #452 ) ;
#1044 = ORIENTED_EDGE ( 'NONE', *, *, #106, .F. ) ;
#1045 = DIRECTION ( 'NONE',  ( 0.000000000000000000, 0.000000000000000000, 1.000000000000000000 ) ) ;
#1046 = EDGE_CURVE ( 'NONE', #935, #635, #745, .T. ) ;
#1047 = EDGE_CURVE ( 'NONE', #1071, #360, #576, .T. ) ;
#1048 = DIRECTION ( 'NONE',  ( 0.000000000000000000, 0.000000000000000000, -1.000000000000000000 ) ) ;
#1049 = VERTEX_POINT ( 'NONE', #913 ) ;
#1050 = CARTESIAN_POINT ( 'NONE',  ( -0.3300000000000076206, 9.000000000000000000, -1.329999999950999046 ) ) ;
#1051 = DIRECTION ( 'NONE',  ( -1.000000000000000000, -4.336808689942018722E-16, 0.000000000000000000 ) ) ;
#1052 = PRODUCT_DEFINITION_SHAPE ( 'NONE', 'NONE',  #498 ) ;
#1053 = ORIENTED_EDGE ( 'NONE', *, *, #44, .F. ) ;
#1054 = VECTOR ( 'NONE', #987, 1000.000000000000000 ) ;
#1055 = CARTESIAN_POINT ( 'NONE',  ( 0.9999999999999915623, 6.000000000000000000, 4.899206040853698596E-11 ) ) ;
#1056 = CARTESIAN_POINT ( 'NONE',  ( 2.366025403784445036, 9.000000000000000000, 4.098076211353316012 ) ) ;
#1057 = VERTEX_POINT ( 'NONE', #1107 ) ;
#1058 = CARTESIAN_POINT ( 'NONE',  ( 0.9999999999999915623, 6.000000000000000000, 4.899206040853698596E-11 ) ) ;
#1059 = VECTOR ( 'NONE', #94, 1000.000000000000000 ) ;
#1060 = ORIENTED_EDGE ( 'NONE', *, *, #1032, .T. ) ;
#1061 = PLANE ( 'NONE',  #719 ) ;
#1062 = EDGE_LOOP ( 'NONE', ( #493, #959 ) ) ;
#1063 = CARTESIAN_POINT ( 'NONE',  ( 0.9999999999999915623, 9.000000000000000000, 0.6500000000489861707 ) ) ;
#1064 = ORIENTED_EDGE ( 'NONE', *, *, #273, .F. ) ;
#1065 = DIRECTION ( 'NONE',  ( -1.000000000000000000, 0.000000000000000000, 0.000000000000000000 ) ) ;
#1066 = ADVANCED_FACE ( 'NONE', ( #114 ), #558, .F. ) ;
#1067 = CARTESIAN_POINT ( 'NONE',  ( -0.3300000000000075651, 9.000000000000001776, -2.629999999950982215 ) ) ;
#1068 = EDGE_CURVE ( 'NONE', #1113, #178, #191, .T. ) ;
#1069 = DIRECTION ( 'NONE',  ( 0.000000000000000000, 0.000000000000000000, 1.000000000000000000 ) ) ;
#1070 = LINE ( 'NONE', #181, #447 ) ;
#1071 = VERTEX_POINT ( 'NONE', #565 ) ;
#1072 = DIRECTION ( 'NONE',  ( -1.000000000000000000, 0.000000000000000000, 3.252606517456512809E-16 ) ) ;
#1073 = ORIENTED_EDGE ( 'NONE', *, *, #14, .T. ) ;
#1074 = VECTOR ( 'NONE', #874, 1000.000000000000114 ) ;
#1075 = DIRECTION ( 'NONE',  ( -0.000000000000000000, 1.000000000000000000, -0.000000000000000000 ) ) ;
#1076 = ORIENTED_EDGE ( 'NONE', *, *, #678, .F. ) ;
#1077 = CARTESIAN_POINT ( 'NONE',  ( -1.449999999999279421, 9.000000000000001776, -0.1199999999510151932 ) ) ;
#1078 = VECTOR ( 'NONE', #732, 1000.000000000000000 ) ;
#1079 = ORIENTED_EDGE ( 'NONE', *, *, #783, .T. ) ;
#1080 = EDGE_CURVE ( 'NONE', #695, #650, #1092, .T. ) ;
#1081 = ADVANCED_FACE ( 'NONE', ( #120 ), #929, .F. ) ;
#1082 = DIRECTION ( 'NONE',  ( -0.5000000000000009992, -0.000000000000000000, -0.8660254037844380415 ) ) ;
#1083 = ORIENTED_EDGE ( 'NONE', *, *, #36, .T. ) ;
#1084 = DIRECTION ( 'NONE',  ( 0.000000000000000000, 0.000000000000000000, 1.000000000000000000 ) ) ;
#1085 = ORIENTED_EDGE ( 'NONE', *, *, #484, .F. ) ;
#1086 = CARTESIAN_POINT ( 'NONE',  ( -2.999999999999997780, 5.000000000000000000, 1.000000000000000000 ) ) ;
#1087 = VERTEX_POINT ( 'NONE', #639 ) ;
#1088 = CARTESIAN_POINT ( 'NONE',  ( -1.449999999999280087, 6.000000000000000000, -0.7699999999510043214 ) ) ;
#1089 = AXIS2_PLACEMENT_3D ( 'NONE', #462, #997, #1102 ) ;
#1090 = CARTESIAN_POINT ( 'NONE',  ( -4.000000000000000000, 1.999999999999999112, -0.6499999999999991340 ) ) ;
#1091 = ORIENTED_EDGE ( 'NONE', *, *, #1047, .T. ) ;
#1092 = LINE ( 'NONE', #992, #490 ) ;
#1093 = APPLICATION_CONTEXT ( 'automotive_design' ) ;
#1094 = EDGE_LOOP ( 'NONE', ( #1025, #165, #82, #70 ) ) ;
#1095 = LINE ( 'NONE', #560, #519 ) ;
#1096 = CIRCLE ( 'NONE', #357, 0.6499999999999891420 ) ;
#1097 = ADVANCED_FACE ( 'NONE', ( #918 ), #724, .F. ) ;
#1098 = ORIENTED_EDGE ( 'NONE', *, *, #894, .F. ) ;
#1099 = CARTESIAN_POINT ( 'NONE',  ( -2.999999999999999556, 9.000000000000000000, 1.000000000000000000 ) ) ;
#1100 = CARTESIAN_POINT ( 'NONE',  ( -5.000000000000000000, 9.000000000000000000, -2.577350269189622622 ) ) ;
#1101 = AXIS2_PLACEMENT_3D ( 'NONE', #955, #1051, #425 ) ;
#1102 = DIRECTION ( 'NONE',  ( 1.000000000000000000, 0.000000000000000000, -0.000000000000000000 ) ) ;
#1103 = VERTEX_POINT ( 'NONE', #41 ) ;
#1104 = DIRECTION ( 'NONE',  ( -4.336808689942018722E-16, 1.000000000000000000, 2.503857664561937307E-16 ) ) ;
#1105 = DIRECTION ( 'NONE',  ( -0.000000000000000000, 1.000000000000000000, -0.000000000000000000 ) ) ;
#1106 = ADVANCED_FACE ( 'NONE', ( #279 ), #832, .F. ) ;
#1107 = CARTESIAN_POINT ( 'NONE',  ( -1.449999999999279421, 6.000000000000000000, -0.1199999999510052151 ) ) ;
#1108 = ORIENTED_EDGE ( 'NONE', *, *, #853, .T. ) ;
#1109 = DIRECTION ( 'NONE',  ( -0.000000000000000000, 1.000000000000000000, -0.000000000000000000 ) ) ;
#1110 = EDGE_CURVE ( 'NONE', #293, #514, #787, .T. ) ;
#1111 = DIRECTION ( 'NONE',  ( 0.000000000000000000, 0.000000000000000000, 1.000000000000000000 ) ) ;
#1112 = CARTESIAN_POINT ( 'NONE',  ( 4.000000000000000000, 4.999999999999999112, 4.892519754648287465E-16 ) ) ;
#1113 = VERTEX_POINT ( 'NONE', #456 ) ;
#1114 = FACE_OUTER_BOUND ( 'NONE', #597, .T. ) ;
#1115 = DIRECTION ( 'NONE',  ( -0.000000000000000000, 1.000000000000000000, -0.000000000000000000 ) ) ;
#1116 = LINE ( 'NONE', #201, #359 ) ;
#1117 = AXIS2_PLACEMENT_3D ( 'NONE', #915, #1109, #641 ) ;
#1118 = AXIS2_PLACEMENT_3D ( 'NONE', #488, #369, #52 ) ;
#1119 = DIRECTION ( 'NONE',  ( 1.000000000000000000, 0.000000000000000000, 0.000000000000000000 ) ) ;
#1120 = ORIENTED_EDGE ( 'NONE', *, *, #800, .F. ) ;
#1121 = DIRECTION ( 'NONE',  ( 0.000000000000000000, 0.000000000000000000, 1.000000000000000000 ) ) ;
#1122 = ORIENTED_EDGE ( 'NONE', *, *, #1047, .F. ) ;
#1123 = LINE ( 'NONE', #1050, #852 ) ;
#1124 = PLANE ( 'NONE',  #164 ) ;
#1125 = ORIENTED_EDGE ( 'NONE', *, *, #875, .F. ) ;
#1126 = LINE ( 'NONE', #1056, #497 ) ;
#1127 = DIRECTION ( 'NONE',  ( -1.000000000000000000, -0.000000000000000000, -0.000000000000000000 ) ) ;
#1128 = DIRECTION ( 'NONE',  ( 0.000000000000000000, 0.000000000000000000, -1.000000000000000000 ) ) ;
#1129 = EDGE_LOOP ( 'NONE', ( #367, #223, #1125, #174, #904, #801, #1044, #1060 ) ) ;
#1130 = CARTESIAN_POINT ( 'NONE',  ( 0.000000000000000000, 0.000000000000000000, 1.000000000000000000 ) ) ;
#1131 = VECTOR ( 'NONE', #499, 1000.000000000000000 ) ;
#1132 = CIRCLE ( 'NONE', #775, 0.6499999999999991340 ) ;
#1133 = LINE ( 'NONE', #936, #81 ) ;
#1134 = EDGE_LOOP ( 'NONE', ( #953, #415, #536, #100 ) ) ;
#1135 = DIRECTION ( 'NONE',  ( 0.000000000000000000, 0.000000000000000000, 1.000000000000000000 ) ) ;
#1136 = EDGE_CURVE ( 'NONE', #207, #692, #735, .T. ) ;
#1137 = VERTEX_POINT ( 'NONE', #195 ) ;
#1138 = DIRECTION ( 'NONE',  ( 2.775557561562793668E-17, 1.000000000000000000, -1.222980050563648509E-16 ) ) ;
#1139 = ADVANCED_FACE ( 'NONE', ( #476 ), #30, .T. ) ;
#1140 = VERTEX_POINT ( 'NONE', #570 ) ;
#1141 = CARTESIAN_POINT ( 'NONE',  ( -1.449999999999279421, 9.000000000000001776, -0.7699999999510043214 ) ) ;
#1142 = DIRECTION ( 'NONE',  ( 0.000000000000000000, 0.000000000000000000, 1.000000000000000000 ) ) ;
#1143 = ORIENTED_EDGE ( 'NONE', *, *, #44, .T. ) ;
ENDSEC;
END-ISO-10303-21;
