<svg id="图层_1" data-name="图层 1" xmlns="http://www.w3.org/2000/svg" width="10mm" height="10mm" viewBox="0 0 28.3465 28.3465">
  <g>
    <path d="M13.7807,12.6215a4.119,4.119,0,0,0-1.5079.84c-1.6484,1.3018-2.9541,3.6626-1.9267,5.772a2.0782,2.0782,0,0,0,1.1484,1.0683,2.1963,2.1963,0,0,0,.7656.13,3.09,3.09,0,0,0,1.1934-.2539,1.6813,1.6813,0,0,0,.35-.22.8647.8647,0,0,1,.4736-.2256,1.4031,1.4031,0,0,1,.668.252,2.3756,2.3756,0,0,0,2.3867.122,2.5972,2.5972,0,0,0,1.1914-2.0176,5.2007,5.2007,0,0,0-1.831-4.2236C15.97,13.2,14.8861,12.3432,13.7807,12.6215Z"/>
    <path d="M11.97,12.2865a1.7937,1.7937,0,0,0,.792-.2A2.2582,2.2582,0,0,0,13.6762,9.63a1.8535,1.8535,0,0,0-1.5186-1.6929,1.7176,1.7176,0,0,0-1.7383,1.2339,2.7155,2.7155,0,0,0,.6182,2.7554A1.3884,1.3884,0,0,0,11.97,12.2865Z"/>
    <path d="M15.5746,12.0316a1.6856,1.6856,0,0,0,.7646.1826,1.6341,1.6341,0,0,0,1.4395-.8295,2.9639,2.9639,0,0,0,.2383-2.0342,1.9325,1.9325,0,0,0-.9326-1.2593V8.0907a1.523,1.523,0,0,0-.5235-.1641A1.6056,1.6056,0,0,0,14.95,8.786C14.4818,9.73,14.3568,11.4149,15.5746,12.0316Z"/>
    <path d="M21.015,11.849a1.4047,1.4047,0,0,0-1.3838-.5688,1.8235,1.8235,0,0,0-1.3193,1.2783,2.3764,2.3764,0,0,0,.1465,1.9009,1.4661,1.4661,0,0,0,1.0244.7334,1.6721,1.6721,0,0,0,.3066.0293,1.4186,1.4186,0,0,0,1.2266-.7115A2.5734,2.5734,0,0,0,21.015,11.849Z"/>
    <path d="M9.8529,12.1283a1.608,1.608,0,0,0-2.0859-.564,1.7741,1.7741,0,0,0-.8047,1.6392,2.1947,2.1947,0,0,0,1.0439,1.9023,1.2919,1.2919,0,0,0,.5928.1436,1.6155,1.6155,0,0,0,1.3125-.7217A2.2558,2.2558,0,0,0,9.8529,12.1283Z"/>
  </g>
</svg>
