<svg id="图层_1" data-name="图层 1" xmlns="http://www.w3.org/2000/svg" width="10mm" height="10mm" viewBox="0 0 28.3465 28.3465">
  <g>
    <path d="M14.2749,19.6082l-.0154,0c-.3442.0151-.5535.3265-.8546.4538a2.6206,2.6206,0,0,1-1.866.1229,1.9574,1.9574,0,0,1-1.08-1.0062c-.9972-2.0476.26-4.33,1.8916-5.6193a4.024,4.024,0,0,1,1.4609-.8173c1.03-.2577,2.0869.5613,2.7956,1.2149a5.1384,5.1384,0,0,1,1.7919,4.1189,2.4747,2.4747,0,0,1-1.1264,1.921,2.256,2.256,0,0,1-2.2648-.1209A1.5027,1.5027,0,0,0,14.2749,19.6082Z"/>
    <path d="M10.5376,9.2113a1.6039,1.6039,0,0,1,1.607-1.15c1.6669.1631,1.97,3.2174.5621,3.9128C11.0057,12.8143,10.041,10.6574,10.5376,9.2113Z"/>
    <path d="M17.0262,8.2018a1.8073,1.8073,0,0,1,.87,1.1779,2.82,2.82,0,0,1-.2268,1.9447,1.5471,1.5471,0,0,1-2.0377.5957c-1.0923-.5532-1.041-2.1272-.5695-3.0783a1.48,1.48,0,0,1,1.4831-.7913A1.3852,1.3852,0,0,1,17.0262,8.2018Z"/>
    <path d="M18.43,12.6a1.7086,1.7086,0,0,1,1.2237-1.1965,1.2726,1.2726,0,0,1,1.26.5185c.7655,1.0692.2456,3.4542-1.4081,3.1477C18.3968,14.864,18.1078,13.5207,18.43,12.6Z"/>
    <path d="M8.0625,14.9945c-1.1041-.5627-1.3911-2.6578-.2327-3.3217a1.4867,1.4867,0,0,1,1.92.5247,2.1323,2.1323,0,0,1,.0575,2.2614,1.4523,1.4523,0,0,1-.5782.51A1.2636,1.2636,0,0,1,8.0625,14.9945Z"/>
  </g>
</svg>
